<svg width="168" height="16" viewBox="0 0 168 16" fill="none" xmlns="http://www.w3.org/2000/svg">
<g clip-path="url(#clip0_54_3703)">
<g clip-path="url(#clip1_54_3703)">
<g clip-path="url(#clip2_54_3703)">
<path d="M4.26813 10.8575C5.59089 10.8162 6.91184 10.7173 8.22741 10.6448L9.83386 10.5317L16.9227 10.0116C19.7258 9.80173 22.5496 9.58774 25.3939 9.3696L37.4981 8.42018L40.2706 8.22352L47.3222 7.70452L54.3749 7.22221C55.299 7.15665 56.2353 7.08023 57.1411 7.02574L68.397 6.3756L75.3217 5.97598C76.2222 5.94789 77.1271 5.86196 78.0334 5.82319L88.9159 5.35784L99.6614 4.88626C100.612 4.85663 101.525 4.82815 102.5 4.79774L109.516 4.55265L120.413 4.15505L123.984 4.04367L131.436 3.81123L132.057 3.79186C126.454 4.0296 120.85 4.27084 115.247 4.51558L108.252 4.85968C107.246 4.89105 106.233 4.92263 105.222 4.99089L95.0695 5.53841L83.3345 6.17202C82.6762 6.19255 82.0194 6.26026 81.3682 6.3068L75.1161 6.7484L62.4442 7.63684C61.8232 7.65621 61.204 7.73323 60.5842 7.78929L54.3854 8.34466L43.3145 9.34055C42.2979 9.42998 41.282 9.54561 40.2659 9.65075L33.178 10.3965L24.1618 11.3021L11.6279 12.6217L8.61668 12.936C6.81986 13.1232 5.03123 13.3731 3.24178 13.5968C3.19161 13.5927 3.14088 13.5978 3.09298 13.6116C3.04509 13.6254 3.00113 13.6477 2.96407 13.6769C2.92701 13.7061 2.89769 13.7416 2.87808 13.7811C2.85846 13.8205 2.84901 13.8629 2.85035 13.9055C2.8517 13.948 2.8638 13.9898 2.88586 14.0279C2.90791 14.066 2.93941 14.0996 2.97825 14.1265C3.01708 14.1533 3.06234 14.1728 3.11102 14.1836C3.15969 14.1944 3.21064 14.1963 3.26045 14.1891L5.23139 14.2011C5.15127 14.347 5.11163 14.5062 5.11552 14.6664C5.12626 14.9551 5.27159 15.2273 5.51992 15.4239C5.76825 15.6205 6.09949 15.7256 6.44161 15.7163C11.5689 15.2836 16.6954 14.8299 21.831 14.4651L35.2036 13.5233L49.9838 12.4694L54.6417 12.1353C55.0888 12.1213 55.5346 12.0654 55.9814 12.041L79.8119 10.773L92.5463 10.0925C94.0854 10.013 95.6183 9.93372 97.1516 9.86491L121.529 8.78451L131.976 8.31699C134.95 8.18227 137.924 8.07377 140.896 7.88664L148.26 7.42085C149.5 7.34541 150.742 7.28047 151.932 7.18038L160.27 6.44288C160.121 6.67639 160.087 6.94893 160.175 7.20133C160.264 7.4459 160.462 7.65064 160.728 7.77172C160.863 7.8351 161.013 7.87417 161.167 7.8865C161.321 7.89884 161.477 7.88417 161.625 7.84341C162.24 7.61962 162.854 7.39059 163.425 7.15768L163.388 7.15884L163.517 7.1076L163.67 7.0451L163.614 7.04684L164.566 6.67613L165.567 6.28289C165.923 6.13538 166.272 5.96185 166.615 5.79376C166.803 5.68953 166.957 5.54595 167.061 5.37713C167.164 5.20831 167.214 5.02007 167.206 4.83092C167.198 4.59324 167.098 4.36506 166.922 4.18113C166.746 3.9972 166.502 3.8676 166.229 3.81207C165.911 3.77477 165.605 3.74757 165.288 3.726L165.076 3.73259C164.865 3.73917 164.648 3.74595 164.457 3.78865C163.985 3.80337 163.515 3.9072 163.044 3.94813L161.885 4.05773L158.786 4.34327L157.98 4.41563C158.075 4.31851 158.143 4.20536 158.181 4.08407C158.227 3.98807 158.251 3.88589 158.253 3.78279L158.283 3.55624C158.278 3.46134 158.254 3.368 158.212 3.28038L158.292 3.24641C158.482 3.14439 158.64 3.00424 158.751 2.83858C158.85 2.67057 158.899 2.48552 158.896 2.29891C158.887 2.1039 158.819 1.91461 158.698 1.74893L158.486 1.53518C158.322 1.40472 158.12 1.31332 157.9 1.27016C157.498 1.16393 157.075 1.12197 156.653 1.14641C156.311 1.15706 155.957 1.16811 155.616 1.20497L154.114 1.25184C153.406 1.27392 152.704 1.29581 151.996 1.3179L146.407 1.49223C144.649 1.54704 142.892 1.60186 141.134 1.65668L136.34 1.80622C129.968 2.00495 123.604 2.23495 117.234 2.4861L102.907 3.12186C100.771 3.18849 98.6416 3.29686 96.5066 3.40543L82.1568 4.1101L78.0666 4.31113C77.2717 4.33592 76.4845 4.4077 75.6904 4.4587L61.5144 5.35207L57.1717 5.62918C56.3652 5.68057 55.553 5.74788 54.7468 5.80975L40.6947 6.88814C38.27 7.07395 35.852 7.27529 33.4278 7.47682L20.9972 8.52562C17.4075 8.82647 13.8171 9.10635 10.2267 9.38623L8.52151 9.52336L5.76195 9.73535C4.9432 9.79237 4.12395 9.83366 3.27887 9.84428C3.23716 9.75394 3.16292 9.67716 3.06653 9.62466C2.97014 9.57217 2.85641 9.54659 2.74126 9.5515C2.21455 9.60465 1.68817 9.66829 1.1618 9.73193C1.03936 9.74283 0.923131 9.78414 0.827843 9.85063C0.732556 9.91712 0.662496 10.0058 0.626541 10.1054C0.592788 10.2317 0.619605 10.3636 0.701108 10.4722C0.782612 10.5808 0.912147 10.6572 1.0613 10.6847L1.75492 10.7995C1.98537 10.8323 2.21871 10.8496 2.45277 10.8512C3.05665 10.8796 3.66557 10.8711 4.26813 10.8575ZM149.533 4.64237L151.85 4.57012C151.922 4.71405 152.032 4.84168 152.172 4.94306C151.875 4.97333 151.577 4.99835 151.28 5.01813L149.592 5.12323L142.215 5.57893C141.092 5.65068 139.97 5.73815 138.846 5.78894L133.576 6.02153L121.534 6.5598L98.1557 7.60377C92.5689 7.85148 86.9844 8.17257 81.3992 8.4727L56.2284 9.81919C54.5468 9.91362 52.8604 10.0554 51.1796 10.176L36.8773 11.2046L22.8415 12.209L21.539 12.3021L25.3193 11.9323L38.5262 10.6651L43.1372 10.2223L45.5179 10.0221L59.258 8.90622C60.1508 8.83115 61.0432 8.7456 61.9427 8.68607L65.8445 8.42271L80.02 7.51361L83.1219 7.31717C83.3952 7.30865 83.6684 7.30012 83.9479 7.29141L86.1389 7.18634L100.346 6.49661C102.525 6.39193 104.691 6.28239 106.889 6.1981C113.936 5.93107 120.976 5.64852 127.999 5.40323C135.183 5.13719 142.361 4.87134 149.54 4.64218L149.533 4.64237Z" fill="#FF6600"/>
</g>
</g>
</g>
<defs>
<clipPath id="clip0_54_3703">
<rect width="167" height="15" fill="white" transform="translate(0.47998 0.819824)"/>
</clipPath>
<clipPath id="clip1_54_3703">
<rect width="167" height="15" fill="white" transform="translate(0.47998 0.819824)"/>
</clipPath>
<clipPath id="clip2_54_3703">
<rect width="167" height="15" fill="white" transform="translate(0.47998 0.819824)"/>
</clipPath>
</defs>
</svg>