<?xml version="1.0" encoding="UTF-8"?>
<svg version="1.1" xmlns="http://www.w3.org/2000/svg" width="1299" height="767">
<path d="M0 0 C5.95873293 0.01744005 11.91745103 0.01141672 17.87620234 0.0083909 C28.84192707 0.00616857 39.80753748 0.02160312 50.77323342 0.04575443 C60.89271918 0.06785055 71.01217114 0.08069213 81.13168025 0.08475351 C82.14193195 0.08516595 82.14193195 0.08516595 83.17259277 0.08558672 C86.5936796 0.08694026 90.01476646 0.08814572 93.43585336 0.08929422 C117.59772443 0.09767117 141.75954241 0.12455118 165.92138362 0.16250467 C189.3780865 0.19930771 212.83477479 0.22761006 236.29150081 0.24453592 C237.01594941 0.24506203 237.74039801 0.24558813 238.4867996 0.24613018 C245.76274438 0.25140476 253.03868927 0.25650794 260.31463426 0.26148562 C275.13342128 0.27162745 289.95220735 0.28291246 304.77099299 0.29488993 C305.79276021 0.29571367 305.79276021 0.29571367 306.8351692 0.29655405 C352.23746488 0.3332879 397.63972986 0.3967443 443.04198909 0.46426249 C441.18705784 4.47836873 438.54357236 7.23791219 435.43066096 10.31851053 C434.85812083 10.89294901 434.2855807 11.46738749 433.69569087 12.05923319 C431.80555545 13.95306766 429.90832593 15.8396153 428.01073909 17.72598124 C426.69522966 19.04029844 425.3800898 20.35498565 424.06530452 21.67002726 C421.31110404 24.42266446 418.55357821 27.17191117 415.79345393 29.91860819 C412.2506495 33.44439803 408.7144886 36.97675999 405.18056178 40.51144552 C402.46660384 43.22513197 399.75005075 45.93620757 397.03260493 48.64640093 C395.72741833 49.94839975 394.42284145 51.25101008 393.11887813 52.55423403 C391.29952796 54.37142322 389.47692748 56.18528535 387.65331721 57.99819803 C387.11195628 58.54001215 386.57059535 59.08182627 386.01282954 59.64005899 C381.51229741 64.10191507 379.62054191 64.58930311 373.29805064 64.59175444 C372.59321713 64.59339827 371.88838362 64.5950421 371.16219151 64.59673575 C368.77634039 64.6010823 366.39054943 64.59826582 364.00469661 64.59556437 C362.2862331 64.59726527 360.56776998 64.59941438 358.84930754 64.60197562 C355.10019595 64.60658519 351.3511009 64.60799104 347.60198665 64.60701036 C341.50196373 64.60542178 335.4019573 64.61061106 329.30193782 64.61663675 C320.44151764 64.62476232 311.58110035 64.62969815 302.72067714 64.63292742 C288.70120222 64.63842181 274.68175168 64.65531947 260.66228938 64.6742692 C255.86550979 64.68062678 251.06873014 64.68693519 246.27195048 64.69324636 C245.07294404 64.69483013 243.8739376 64.69641389 242.63859762 64.69804564 C228.97781581 64.71599627 215.31703225 64.73221313 201.6562469 64.74722147 C200.40709053 64.74859734 199.15793416 64.74997321 197.87092456 64.75139078 C177.67155361 64.77327529 157.47218892 64.78406513 137.27280822 64.79159222 C116.52332297 64.79968042 95.77389119 64.8230304 75.02443647 64.85954589 C62.23537997 64.88150988 49.44643361 64.89125422 36.65735921 64.88504555 C27.87442554 64.88185617 19.09158541 64.89329812 10.30868068 64.91593996 C5.25080887 64.92853283 0.19314561 64.9348694 -4.86473393 64.92352343 C-33.64801431 64.73237227 -33.64801431 64.73237227 -61.95801091 69.46426249 C-62.71941931 69.65378162 -63.48082771 69.84330076 -64.2653091 70.03856289 C-92.64643499 77.14886797 -119.14794582 91.88487616 -140.34082341 111.99941874 C-142.43393813 113.97069543 -144.54932262 115.83038808 -146.77051091 117.65176249 C-180.9442569 146.56543735 -197.90273141 195.75881401 -203.95801091 238.46426249 C-204.0640363 239.20845438 -204.17006169 239.95264627 -204.27929997 240.71938944 C-209.21573812 279.55181819 -200.4535354 319.23428802 -183.89355779 354.26040506 C-182.95801091 356.46426249 -182.95801091 356.46426249 -182.95801091 358.46426249 C-205.72801091 358.46426249 -228.49801091 358.46426249 -251.95801091 358.46426249 C-255.36006459 350.29933366 -258.28491403 342.68029692 -260.52051091 334.21426249 C-260.96547917 332.54774637 -260.96547917 332.54774637 -261.41943669 330.84756327 C-264.35287236 319.51594643 -266.37036046 308.05599835 -267.95801091 296.46426249 C-268.13308171 295.27437723 -268.30815251 294.08449198 -268.48852849 292.85854959 C-269.13587327 287.5947197 -269.1574303 282.33617402 -269.19629216 277.03848124 C-269.2060407 275.94578424 -269.21578923 274.85308725 -269.22583318 273.72727823 C-269.5417708 229.17592692 -269.5417708 229.17592692 -264.95801091 208.46426249 C-264.59201953 206.65829437 -264.22613323 204.85230496 -263.86035466 203.04629374 C-254.42508294 158.66421143 -233.20277945 116.19012499 -202.23926091 82.93301249 C-200.34570483 80.88382166 -198.55203231 78.79685968 -196.77051091 76.65176249 C-163.79106855 38.87249518 -115.98369103 15.74530368 -67.95801091 4.46426249 C-66.75366714 4.17039801 -66.75366714 4.17039801 -65.52499318 3.87059689 C-44.06379634 -1.17497703 -21.88843337 -0.08049355 0 0 Z " fill="#F7F7F7" transform="translate(568.9580109119415,146.53573751449585)"/>
<path d="M0 0 C23.1 0 46.2 0 70 0 C74.50457254 10.13528822 74.50457254 10.13528822 75.81640625 14.85546875 C76.10418945 15.88244873 76.39197266 16.90942871 76.68847656 17.9675293 C77.12111816 19.56141479 77.12111816 19.56141479 77.5625 21.1875 C77.86768555 22.3010083 78.17287109 23.4145166 78.48730469 24.56176758 C84.89986645 48.20161786 87.57616523 71.26711614 87.4375 95.75 C87.43293793 97.46396469 87.43293793 97.46396469 87.42828369 99.21255493 C87.3628986 115.8283595 86.74095201 131.75244879 83 148 C82.54811936 150.11717518 82.0962985 152.23436312 81.64453125 154.3515625 C72.54650412 195.52704184 54.6838429 233.28915035 28 266 C27.3203418 266.834104 27.3203418 266.834104 26.62695312 267.68505859 C15.93526154 280.69768323 4.33531876 292.67811691 -9 303 C-10.25320373 304.00446075 -11.50576279 305.00972614 -12.7578125 306.015625 C-41.54469697 328.87781481 -75.52304669 344.4501112 -111.25 352.75 C-112.09989502 352.94875732 -112.94979004 353.14751465 -113.82543945 353.35229492 C-128.39049226 356.5863549 -142.47415745 357.28854536 -157.33018494 357.24050903 C-159.35603389 357.24138269 -161.38188262 357.24313661 -163.40773016 357.24568737 C-168.9378373 357.25013341 -174.46786613 357.24219517 -179.99796331 357.23213124 C-185.97526051 357.22345928 -191.95255362 357.22641955 -197.92985535 357.22793579 C-208.27376733 357.22898228 -218.61765579 357.22280066 -228.9615612 357.21146011 C-239.80370135 357.19960394 -250.64583139 357.19192376 -261.48797798 357.18975449 C-262.16348412 357.18961701 -262.83899025 357.18947953 -263.53496627 357.18933788 C-266.9658738 357.18866116 -270.39678133 357.18805842 -273.82768888 357.18748413 C-298.0943613 357.18328939 -322.36102054 357.16983171 -346.62768555 357.15087891 C-370.19441661 357.13249408 -393.76114406 357.11833468 -417.32788086 357.10986328 C-418.05500725 357.10960023 -418.78213364 357.10933718 -419.53129417 357.10906615 C-426.83375901 357.10642899 -434.13622388 357.10387738 -441.43868877 357.10138843 C-456.31309434 357.09631675 -471.18749968 357.09067425 -486.06190491 357.08468628 C-486.74572415 357.0844117 -487.4295434 357.08413712 -488.13408444 357.08385422 C-533.75606185 357.06546983 -579.37803164 357.03373967 -625 357 C-624.67 356.01 -624.34 355.02 -624 354 C-623.34 354 -622.68 354 -622 354 C-622 353.34 -622 352.68 -622 352 C-620.33784732 350.66104368 -618.67036393 349.32869858 -617 348 C-616.278125 347.0925 -615.55625 346.185 -614.8125 345.25 C-614.214375 344.5075 -613.61625 343.765 -613 343 C-612.34 343 -611.68 343 -611 343 C-610.67 342.01 -610.34 341.02 -610 340 C-609.34 340 -608.68 340 -608 340 C-607.67 339.01 -607.34 338.02 -607 337 C-606.34 337 -605.68 337 -605 337 C-605 336.34 -605 335.68 -605 335 C-603.33784732 333.66104368 -601.67036393 332.32869858 -600 331 C-599.278125 330.0925 -598.55625 329.185 -597.8125 328.25 C-597.214375 327.5075 -596.61625 326.765 -596 326 C-595.34 326 -594.68 326 -594 326 C-593.67 325.01 -593.34 324.02 -593 323 C-592.34 323 -591.68 323 -591 323 C-590.67 322.01 -590.34 321.02 -590 320 C-589.34 320 -588.68 320 -588 320 C-588 319.34 -588 318.68 -588 318 C-586.34997172 316.64613064 -584.6825613 315.31321858 -583 314 C-582.67 313.34 -582.34 312.68 -582 312 C-581.34 312 -580.68 312 -580 312 C-579.67 311.01 -579.34 310.02 -579 309 C-578.34 309 -577.68 309 -577 309 C-576.67 308.01 -576.34 307.02 -576 306 C-575.34 306 -574.68 306 -574 306 C-573.67 305.01 -573.34 304.02 -573 303 C-572.34 303 -571.68 303 -571 303 C-571 302.34 -571 301.68 -571 301 C-569.36395804 299.62926214 -567.69321939 298.29944744 -566 297 C-565.58903881 296.47016618 -565.17807761 295.94033236 -564.75466305 295.39444298 C-562.03563682 293.23361385 -559.6663125 293.62566818 -556.2378912 293.62641239 C-555.54323247 293.62246087 -554.84857374 293.61850935 -554.13286474 293.61443809 C-551.78742557 293.60477452 -549.44257639 293.61660999 -547.09715271 293.62818909 C-545.40542375 293.62561614 -543.71369637 293.6217167 -542.02197319 293.6165995 C-537.35862997 293.60628716 -532.69547486 293.61465495 -528.03214061 293.62589633 C-523.00709988 293.63472429 -517.9820865 293.62625377 -512.95704651 293.61968994 C-504.24014511 293.6105162 -495.52329632 293.61187607 -486.80639458 293.61987495 C-474.17481208 293.63110018 -461.54330459 293.62206931 -448.91172863 293.60731315 C-428.38182754 293.58351216 -407.85193569 293.57017238 -387.32202148 293.56616211 C-385.47762457 293.56579481 -385.47762457 293.56579481 -383.59596712 293.56542008 C-369.90567305 293.56287913 -356.21537969 293.5623046 -342.52508545 293.56335449 C-337.57556153 293.56368745 -332.6260376 293.56397288 -327.67651367 293.56420898 C-326.45538616 293.56427177 -325.23425864 293.56433456 -323.97612726 293.56439925 C-303.55204255 293.56500588 -283.1280003 293.55004366 -262.7039333 293.52337593 C-250.12132843 293.50763034 -237.53886133 293.50525032 -224.95625515 293.52050995 C-216.31020699 293.53003455 -207.66424122 293.5251281 -199.01820266 293.50929613 C-194.04285401 293.50066925 -189.06772496 293.49829614 -184.09238815 293.51382256 C-157.34379908 293.59166002 -131.56294826 292.83818405 -106 284 C-105.04818848 283.68772461 -105.04818848 283.68772461 -104.07714844 283.36914062 C-86.30895547 277.52138092 -69.72023949 268.50547455 -55 257 C-54.06285156 256.27296875 -53.12570312 255.5459375 -52.16015625 254.796875 C-42.11153769 246.78104728 -31.98319312 238.12543362 -24 228 C-23.56864746 227.4539209 -23.13729492 226.9078418 -22.69287109 226.34521484 C-11.57449141 212.16788863 -2.6786365 197.28004552 5 181 C5.53496094 179.87207031 6.06992187 178.74414062 6.62109375 177.58203125 C28.25465453 129.65105114 28.2858784 71.40485393 9.98095703 22.50195312 C6.98769269 14.86756464 3.66762684 7.33525369 0 0 Z " fill="#FBFBFB" transform="translate(753,325)"/>
<path d="M0 0 C1.93329018 -0.00298657 1.93329018 -0.00298657 3.90563673 -0.00603348 C5.32351286 -0.00318095 6.7413888 -0.00023537 8.15926456 0.00279331 C9.67498307 0.002357 11.1907015 0.001481 12.70641953 0.00020415 C16.86358977 -0.00202911 21.02073419 0.00196448 25.17790115 0.00698221 C29.66384592 0.0113033 34.14978925 0.0098391 38.63573551 0.00907993 C46.40533575 0.00855575 54.17492759 0.01169152 61.94452572 0.01731777 C73.17804111 0.02544707 84.41155243 0.02804946 95.64507044 0.02930576 C113.87100061 0.03149403 132.0969263 0.03814802 150.32285404 0.04760838 C168.02695538 0.05678831 185.7310555 0.0638663 203.43515873 0.06811619 C204.52656005 0.06837891 205.61796136 0.06864164 206.74243545 0.06891232 C212.21771108 0.07021736 217.69298672 0.07148107 223.16826236 0.07272422 C268.58641386 0.08308982 314.00456048 0.10070203 359.42270756 0.12304783 C346.76835814 25.697014 325.60651051 52.48417474 298.42270756 63.12304783 C276.76678793 69.4974845 253.0010757 69.03258383 230.61802006 69.03320408 C229.4526632 69.03409838 229.4526632 69.03409838 228.26376379 69.03501076 C208.00660891 69.03662581 187.7769384 68.46455489 167.53584552 67.70492017 C155.82029024 67.26997642 144.10758928 66.97797579 132.38559818 66.78588963 C131.14075782 66.76542288 131.14075782 66.76542288 129.87076916 66.74454267 C125.70185663 66.67683316 121.5329081 66.61179215 117.36392713 66.54844582 C109.23254895 66.42484737 101.10136641 66.29024982 92.97028446 66.14854527 C92.1833319 66.13489734 91.39637934 66.12124942 90.58557974 66.10718792 C79.80645334 65.91740266 69.03119146 65.65718652 58.25550976 65.32535209 C56.06615524 65.2579525 53.87676196 65.19196912 51.6873548 65.12630355 C44.9886358 64.92408691 38.29097084 64.70783875 31.5935297 64.4661417 C14.1956955 63.88996641 -3.34774898 63.95395444 -20.32729244 68.31054783 C-21.61313229 68.6298325 -21.61313229 68.6298325 -22.92494869 68.95556736 C-55.6360282 77.47862085 -85.15920594 98.10846284 -102.45180416 127.33618259 C-108.07742453 137.25623721 -112.0987253 147.9941172 -114.57729244 159.12304783 C-114.78225338 160.0176572 -114.98721432 160.91226658 -115.19838619 161.83398533 C-120.59089293 188.98246751 -113.36474649 217.14843988 -98.57729244 240.12304783 C-96.08858888 243.63483221 -93.42033053 246.89432628 -90.57729244 250.12304783 C-89.89151119 250.94031345 -89.20572994 251.75757908 -88.49916744 252.59961033 C-78.92193717 263.76050078 -78.92193717 263.76050078 -66.57729244 271.12304783 C-66.57729244 271.78304783 -66.57729244 272.44304783 -66.57729244 273.12304783 C-77.78176195 273.42472362 -88.98526085 273.6554688 -100.19296932 273.79660606 C-105.3978975 273.86436111 -110.60004137 273.95618129 -115.80336666 274.10376072 C-120.82866713 274.24539307 -125.8512973 274.32281239 -130.8784399 274.35645199 C-132.79252336 274.38040965 -134.70646594 274.42720287 -136.6194067 274.49753857 C-151.22229118 275.01293249 -151.22229118 275.01293249 -155.15715313 271.85521221 C-158.16925934 268.35197016 -159.87771483 264.40426539 -161.57729244 260.12304783 C-162.33457517 258.6627334 -163.10331011 257.20809672 -163.89760494 255.76757908 C-164.51035154 254.49556253 -165.11205122 253.21816227 -165.70229244 251.93554783 C-166.19294186 250.8758176 -166.19294186 250.8758176 -166.69350338 249.79467869 C-172.87613553 236.0918547 -176.69587024 221.84046587 -179.57729244 207.12304783 C-179.75308834 206.23464207 -179.92888424 205.34623631 -180.11000729 204.43090916 C-180.68347512 200.37139209 -180.77669352 196.40157217 -180.81557369 192.30664158 C-180.82545818 191.46174168 -180.83534267 190.61684177 -180.8455267 189.74633884 C-181.17115963 154.69288711 -181.17115963 154.69288711 -176.57729244 139.12304783 C-176.31947994 138.19927341 -176.06166744 137.275499 -175.79604244 136.32373142 C-167.32665044 106.50931502 -151.5782187 81.66763191 -130.57729244 59.12304783 C-129.85412838 58.33414158 -129.13096432 57.54523533 -128.38588619 56.73242283 C-97.45403567 24.28276576 -45.05551785 -0.01542469 0 0 Z " fill="#F9F9F9" transform="translate(567.5772924423218,231.87695217132568)"/>
<path d="M0 0 C11.23940657 -0.20863947 22.47835176 -0.36849883 33.71930122 -0.46630955 C38.93921483 -0.51325791 44.15780265 -0.5769192 49.37695312 -0.67895508 C54.41506821 -0.77683388 59.45190941 -0.83057534 64.49090195 -0.85389519 C66.41199682 -0.87051002 68.3330228 -0.90295782 70.25357437 -0.95157051 C85.31608752 -1.31762477 85.31608752 -1.31762477 89.47041321 1.93304443 C91.05379155 4.26171779 92.0505628 6.35894474 93 9 C93.67788029 10.24734424 94.37110429 11.48668143 95.08984375 12.7109375 C103.8480089 29.73801062 109.38678137 47.21317488 113 66 C113.17885742 66.91241455 113.35771484 67.8248291 113.54199219 68.76489258 C114.09590287 72.6774035 114.21819211 76.54824611 114.2734375 80.4921875 C114.29222961 81.71427917 114.29222961 81.71427917 114.31140137 82.96105957 C114.5372509 101.19083806 114.25899319 118.38030234 109 136 C108.64711914 137.22251465 108.64711914 137.22251465 108.28710938 138.46972656 C106.74053982 143.73360174 104.96862101 148.87988514 103 154 C102.61787354 155.00353516 102.61787354 155.00353516 102.22802734 156.02734375 C84.59689147 201.39297485 45.82541555 236.28827213 2.0546875 255.90234375 C-22.50908297 266.39261081 -48.03101207 272.35625575 -74.73655701 272.24050903 C-76.2633053 272.2413836 -77.79005329 272.24313917 -79.3167997 272.24568737 C-83.46732647 272.25011565 -87.61774814 272.24222026 -91.76826155 272.23213124 C-96.26088215 272.22343309 -100.7534976 272.22642137 -105.24612427 272.22793579 C-113.01504845 272.22898064 -120.78393885 272.22274601 -128.55285454 272.21146011 C-139.78517244 272.19515362 -151.01747414 272.18999185 -162.2498026 272.18748413 C-180.47684704 272.18311508 -198.70387351 272.16982748 -216.9309082 272.15087891 C-234.62882396 272.13249961 -252.32673482 272.11835315 -270.0246582 272.10986328 C-271.11694473 272.10933783 -272.20923125 272.10881239 -273.33461737 272.10827102 C-278.81471197 272.1056608 -284.29480661 272.10313342 -289.77490127 272.10064721 C-335.18327996 272.07993933 -380.59163905 272.0447354 -426 272 C-426 271.34 -426 270.68 -426 270 C-424.34997172 268.64613064 -422.6825613 267.31321858 -421 266 C-420.67 265.34 -420.34 264.68 -420 264 C-419.34 264 -418.68 264 -418 264 C-417.67 263.01 -417.34 262.02 -417 261 C-416.34 261 -415.68 261 -415 261 C-414.67 260.01 -414.34 259.02 -414 258 C-413.34 258 -412.68 258 -412 258 C-411.67 257.01 -411.34 256.02 -411 255 C-410.34 255 -409.68 255 -409 255 C-408.67 254.01 -408.34 253.02 -408 252 C-407.34 252 -406.68 252 -406 252 C-406 251.34 -406 250.68 -406 250 C-404.625 248.375 -404.625 248.375 -403 247 C-402.34 247 -401.68 247 -401 247 C-400.67 246.01 -400.34 245.02 -400 244 C-399.34 244 -398.68 244 -398 244 C-397.67 243.01 -397.34 242.02 -397 241 C-396.34 241 -395.68 241 -395 241 C-394.67 240.01 -394.34 239.02 -394 238 C-393.34 238 -392.68 238 -392 238 C-392 237.34 -392 236.68 -392 236 C-390.625 234.375 -390.625 234.375 -389 233 C-388.34 233 -387.68 233 -387 233 C-386.67 232.01 -386.34 231.02 -386 230 C-385.34 230 -384.68 230 -384 230 C-383.67 229.01 -383.34 228.02 -383 227 C-382.34 227 -381.68 227 -381 227 C-380.67 226.01 -380.34 225.02 -380 224 C-379.34 224 -378.68 224 -378 224 C-377.67 223.01 -377.34 222.02 -377 221 C-376.34 221 -375.68 221 -375 221 C-375 220.34 -375 219.68 -375 219 C-373.625 217.375 -373.625 217.375 -372 216 C-371.34 216 -370.68 216 -370 216 C-369.67 215.01 -369.34 214.02 -369 213 C-368.34 213 -367.68 213 -367 213 C-366.67 212.01 -366.34 211.02 -366 210 C-363.54762763 208.77381381 -361.96102278 208.87292522 -359.21826363 208.86971474 C-358.20249721 208.86609039 -357.18673079 208.86246604 -356.14018357 208.85873187 C-355.01571285 208.85980012 -353.89124213 208.86086837 -352.73269653 208.86196899 C-351.54453461 208.85914771 -350.35637268 208.85632643 -349.13220584 208.85341966 C-345.82325901 208.84650444 -342.51436125 208.84404616 -339.20541072 208.84336853 C-335.63992475 208.84153206 -332.074451 208.83392639 -328.50897217 208.82688904 C-322.32339759 208.81534773 -316.13782576 208.80711096 -309.9522438 208.80076981 C-300.15913347 208.79044148 -290.36605706 208.76987345 -280.57296753 208.74765015 C-277.22074329 208.74016939 -273.86851891 208.73275566 -270.51629448 208.72536278 C-269.25937559 208.72258693 -269.25937559 208.72258693 -267.97706441 208.719755 C-258.43051371 208.69881285 -248.88395922 208.67999617 -239.33740234 208.66210938 C-238.46453881 208.66047119 -237.59167528 208.65883301 -236.69236134 208.65714519 C-222.58957806 208.63093596 -208.48679218 208.61225282 -194.38399495 208.59551747 C-179.88800552 208.57803879 -165.39206686 208.54912591 -150.89611804 208.5106281 C-141.96724885 208.48733593 -133.03846255 208.47324329 -124.10956274 208.47130047 C-117.97202973 208.46917569 -111.83457866 208.45611925 -105.69708253 208.43482114 C-102.16652852 208.42290471 -98.63613701 208.41556401 -95.10556412 208.42153358 C-76.42568386 208.44067352 -57.83261182 208.09107938 -39.875 202.3125 C-39.05918457 202.0561377 -38.24336914 201.79977539 -37.40283203 201.53564453 C-15.69444576 194.48681368 2.97644557 183.30197789 19 167 C19.83015625 166.16855469 20.6603125 165.33710938 21.515625 164.48046875 C34.18504246 151.14310581 42.75063769 133.78287641 47 116 C47.17587646 115.37416016 47.35175293 114.74832031 47.53295898 114.10351562 C49.42090957 106.85946697 49.44096604 99.57239521 49.4375 92.125 C49.43823517 91.43880585 49.43897034 90.75261169 49.43972778 90.04562378 C49.40709935 78.43074745 48.16063545 67.90594697 44 57 C43.7323584 56.28827637 43.4647168 55.57655273 43.18896484 54.84326172 C35.24895843 34.26994691 20.76491119 13.42899554 1.51171875 1.953125 C1.01285156 1.63859375 0.51398438 1.3240625 0 1 C0 0.67 0 0.34 0 0 Z " fill="#F9F9F9" transform="translate(639,325)"/>
<path d="M0 0 C1.32 0 2.64 0 4 0 C4 0.66 4 1.32 4 2 C52.84 2 101.68 2 152 2 C152 1.34 152 0.68 152 0 C155.96 0 159.92 0 164 0 C164.33 1.98 164.66 3.96 165 6 C166.65 6 168.3 6 170 6 C169.979375 6.804375 169.95875 7.60875 169.9375 8.4375 C169.70366379 10.93354885 169.70366379 10.93354885 171 12 C171.096937 14.15159726 171.12186783 16.30644111 171.12025452 18.46022034 C171.12153615 19.48443184 171.12153615 19.48443184 171.12284368 20.52933449 C171.12450043 22.83411691 171.11897397 25.13882772 171.11352539 27.44360352 C171.11324353 29.08905028 171.11340122 30.73449716 171.1139679 32.37994385 C171.11425593 36.86115759 171.10835821 41.34234481 171.10139394 45.82355237 C171.09516142 50.50142105 171.09455668 55.17929028 171.09336853 59.85716248 C171.09025491 68.72175168 171.08204111 77.58632862 171.07201904 86.45091242 C171.06085885 96.54022202 171.05534769 106.6295322 171.05032361 116.71884644 C171.03985852 137.47923782 171.02225849 158.23961814 171 179 C169.01432292 178.70703125 167.02864583 178.4140625 165.04296875 178.12109375 C162.7974658 177.86095201 162.7974658 177.86095201 160 179 C159.01 178.67 158.02 178.34 157 178 C157 176.35 157 174.7 157 173 C155.35 173 153.7 173 152 173 C150.875 169.25 150.875 169.25 152 167 C149.69 166.67 147.38 166.34 145 166 C144.67 164.35 144.34 162.7 144 161 C142.68 161 141.36 161 140 161 C138.95550089 157.86650268 139.06576355 157.01031744 140 154 C138.02 154.33 136.04 154.66 134 155 C133.34 153.02 132.68 151.04 132 149 C130.68 149 129.36 149 128 149 C127.67 147.02 127.34 145.04 127 143 C125.35 143 123.7 143 122 143 C121.67 141.02 121.34 139.04 121 137 C119.35 136.67 117.7 136.34 116 136 C116 134.68 116 133.36 116 132 C114.35 131.67 112.7 131.34 111 131 C111 132.98 111 134.96 111 137 C107.37 137 103.74 137 100 137 C98.7018576 139.2236068 98.7018576 139.2236068 99 143 C98.34 143 97.68 143 97 143 C97 143.66 97 144.32 97 145 C96.34 145.66 95.68 146.32 95 147 C95 147.66 95 148.32 95 149 C94.34 149 93.68 149 93 149 C91.97980427 149.9793879 90.97850195 150.97895449 90 152 C89.67 152 89.34 152 89 152 C88.34 152.33 87.68 152.66 87 153 C86.87625 153.598125 86.7525 154.19625 86.625 154.8125 C85.79277307 157.72529427 84.21478508 158.98655902 82 161 C81.34 161.66 80.68 162.32 80 163 C79.67 162.67 79.34 162.34 79 162 C78.2575 162.825 77.515 163.65 76.75 164.5 C74 167 74 167 70 167 C70 169.64 70 172.28 70 175 C69.34 175 68.68 175 68 175 C68 175.99 68 176.98 68 178 C65.03 178 62.06 178 59 178 C58.38926213 180.6719782 57.99708801 182.93739219 58.125 185.6875 C58.08375 186.450625 58.0425 187.21375 58 188 C54.91111478 190.05925681 54.29064073 190.2390374 50.8125 190.125 C49.554375 190.08375 48.29625 190.0425 47 190 C45.6728739 193.9813783 45.93084087 197.85045227 46 202 C44.68 202 43.36 202 42 202 C42 201.34 42 200.68 42 200 C41.34 200 40.68 200 40 200 C40 199.34 40 198.68 40 198 C37.92022703 199.22590192 37.92022703 199.22590192 36 201 C36 202.32 36 203.64 36 205 C35.34 205 34.68 205 34 205 C34 206.98 34 208.96 34 211 C33.01 211 32.02 211 31 211 C30.67 211.99 30.34 212.98 30 214 C27 216 27 216 24.3125 215.625 C23.549375 215.41875 22.78625 215.2125 22 215 C22.495 215.45375 22.99 215.9075 23.5 216.375 C25 218 25 218 25 220 C24.071875 220.185625 24.071875 220.185625 23.125 220.375 C20.80879168 220.87197356 20.80879168 220.87197356 19 223 C13.20969961 224.49812933 7.14870423 224.13275845 1.21142578 224.11352539 C0.03036758 224.11367142 -1.15069061 224.11381744 -2.36753845 224.1139679 C-5.59230442 224.11339217 -8.81702654 224.10838996 -12.04178381 224.10139394 C-15.41702425 224.09512658 -18.79226563 224.09455393 -22.16751099 224.09336853 C-28.55281833 224.09026517 -34.93810847 224.08206523 -41.32340825 224.07201904 C-48.59547435 224.06082696 -55.86754129 224.05533966 -63.13961387 224.05032361 C-78.09308548 224.03988176 -93.04654102 224.02230164 -108 224 C-103.37950552 218.45753295 -98.46647735 213.31828232 -93.36425781 208.21899414 C-92.09492149 206.9446199 -92.09492149 206.9446199 -90.79994202 205.64450073 C-88.49845685 203.33519116 -86.19474807 201.02813235 -83.88966846 198.72241139 C-82.44881171 197.28084082 -81.00867054 195.83855932 -79.56877899 194.3960247 C-74.54397503 189.3620011 -69.51662712 184.33053462 -64.48681641 179.30151367 C-59.79809181 174.61339238 -55.11500228 169.91969307 -50.43445516 165.22340876 C-46.40986718 161.18577162 -42.38146017 157.15197227 -38.35002208 153.12117475 C-35.94438507 150.71579305 -33.5403365 148.30887396 -31.14011383 145.89808846 C-28.47082209 143.21906608 -25.79535014 140.54637429 -23.11816406 137.87524414 C-22.32126663 137.0727272 -21.5243692 136.27021027 -20.70332336 135.44337463 C-19.97721359 134.72145935 -19.25110382 133.99954407 -18.50299072 133.25575256 C-17.8710593 132.62327638 -17.23912788 131.99080019 -16.58804703 131.33915806 C-15 130 -15 130 -13 130 C-12.5968457 129.11006348 -12.5968457 129.11006348 -12.18554688 128.20214844 C-10.99709268 125.99459967 -9.79257611 124.53457118 -8.03125 122.765625 C-7.17466797 121.90517578 -7.17466797 121.90517578 -6.30078125 121.02734375 C-5.70652344 120.44082031 -5.11226562 119.85429687 -4.5 119.25 C-3.90574219 118.64800781 -3.31148437 118.04601562 -2.69921875 117.42578125 C-2.12816406 116.85730469 -1.55710937 116.28882813 -0.96875 115.703125 C-0.44732422 115.18395508 0.07410156 114.66478516 0.61132812 114.12988281 C2 113 2 113 4 113 C4.495 111.515 4.495 111.515 5 110 C5.66 110 6.32 110 7 110 C7.495 108.515 7.495 108.515 8 107 C8.66 107 9.32 107 10 107 C10.495 105.515 10.495 105.515 11 104 C11.66 104 12.32 104 13 104 C13 103.34 13 102.68 13 102 C14.66215268 100.66104368 16.32963607 99.32869858 18 98 C18.721875 97.0925 19.44375 96.185 20.1875 95.25 C20.785625 94.5075 21.38375 93.765 22 93 C22.66 93 23.32 93 24 93 C24.33 92.01 24.66 91.02 25 90 C25.66 90 26.32 90 27 90 C27 89.34 27 88.68 27 88 C28.2578125 86.765625 28.2578125 86.765625 30.125 85.25 C36.81214894 79.58885767 42.84874729 73.22900731 49 67 C48.01 67.33 47.02 67.66 46 68 C44.875 62.25 44.875 62.25 46 60 C43.69 60 41.38 60 39 60 C39 58.02 39 56.04 39 54 C37.02 54 35.04 54 33 54 C33 52.35 33 50.7 33 49 C32.01 49 31.02 49 30 49 C30 50.65 30 52.3 30 54 C29.01 54 28.02 54 27 54 C27.02320313 53.30132812 27.04640625 52.60265625 27.0703125 51.8828125 C27.08835937 50.97273438 27.10640625 50.06265625 27.125 49.125 C27.14820313 48.22007813 27.17140625 47.31515625 27.1953125 46.3828125 C27.24324836 43.81193006 27.24324836 43.81193006 25 42 C24.01 42.33 23.02 42.66 22 43 C21.67 41.02 21.34 39.04 21 37 C19.35 36.67 17.7 36.34 16 36 C15.505 34.02 15.505 34.02 15 32 C13.35 31.67 11.7 31.34 10 31 C8.95550089 27.86650268 9.06576355 27.01031744 10 24 C8.02 24.33 6.04 24.66 4 25 C4 23.35 4 21.7 4 20 C2.02 19.34 0.04 18.68 -2 18 C-2.33 16.35 -2.66 14.7 -3 13 C-3.99 13 -4.98 13 -6 13 C-8.21538462 7.58461538 -8.21538462 7.58461538 -7.125 4.625 C-6.568125 3.820625 -6.568125 3.820625 -6 3 C-5.01 3.99 -5.01 3.99 -4 5 C-1.83656989 2.96731398 -1.83656989 2.96731398 0 0 Z M-4 7 C-3 9 -3 9 -3 9 Z M23 36 C24 39 24 39 24 39 Z M107 129 C107 132 107 132 107 132 Z M108 132 C107.67 132.66 107.34 133.32 107 134 C107.66 134 108.32 134 109 134 C108.67 133.34 108.34 132.68 108 132 Z M90 146 C89.67 147.32 89.34 148.64 89 150 C89.66 148.68 90.32 147.36 91 146 C90.67 146 90.34 146 90 146 Z M81 155 C80.67 155.66 80.34 156.32 80 157 C80.66 157 81.32 157 82 157 C81.67 156.34 81.34 155.68 81 155 Z M77 160 C76.67 160.66 76.34 161.32 76 162 C76.66 162 77.32 162 78 162 C77.67 161.34 77.34 160.68 77 160 Z M65 171 C63.515 172.98 63.515 172.98 62 175 C63.32 174.67 64.64 174.34 66 174 C65.67 173.01 65.34 172.02 65 171 Z M67 172 C68 175 68 175 68 175 Z M53 183 C54 185 54 185 54 185 Z M55 184 C56 186 56 186 56 186 Z M50 186 C50.66 186.66 51.32 187.32 52 188 C52 187.34 52 186.68 52 186 C51.34 186 50.68 186 50 186 Z M41 195 C42 197 42 197 42 197 Z M43 197 C42.67 197.66 42.34 198.32 42 199 C42.66 199 43.32 199 44 199 C43.67 198.34 43.34 197.68 43 197 Z M29 207 C30 209 30 209 30 209 Z " fill="#FEFEFE" transform="translate(987,72)"/>
<path d="M0 0 C16.99055483 14.95623767 28.69022387 34.9482029 31.9375 57.5 C33.13550451 77.05969572 32.15673074 94.92923083 22.9375 112.5 C22.51984375 113.3765625 22.1021875 114.253125 21.671875 115.15625 C10.76296353 136.97407295 -10.0567 152.18673221 -32.8515625 159.828125 C-56.81313306 166.96861305 -82.60593619 163.28290506 -104.52734375 152.06640625 C-111.36715808 148.34676065 -117.24885937 143.64222833 -123.0625 138.5 C-124.0834375 137.62794922 -124.0834375 137.62794922 -125.125 136.73828125 C-140.84880612 122.28839461 -150.91585362 99.59728301 -152.18701172 78.42626953 C-153.15206846 51.37470998 -145.77150755 28.1203095 -127.87890625 7.4140625 C-94.86582796 -27.8517839 -36.86790727 -31.16041419 0 0 Z " fill="#FC6400" transform="translate(628.0625,342.5)"/>
<path d="M0 0 C0 3.7778201 -1.36407308 4.72203032 -3.92596722 7.31321114 C-4.50960946 7.88811486 -5.09325171 8.46301858 -5.69458008 9.05534363 C-6.30711293 9.67043976 -6.91964579 10.28553589 -7.55074024 10.91927129 C-9.61659533 12.99008984 -11.69303252 15.04996582 -13.76953125 17.11010742 C-15.24798904 18.58771949 -16.72578753 20.06599149 -18.20297241 21.5448761 C-22.22507819 25.56784541 -26.25639108 29.58147443 -30.28936386 33.59354568 C-34.49878378 37.78425852 -38.69975428 41.98342358 -42.90161133 46.18171692 C-50.86421303 54.13498058 -58.83443374 62.08056369 -66.80738926 70.02344638 C-75.88203318 79.06460099 -84.94819736 88.11423823 -94.01364326 97.16461408 C-112.66631189 115.78589384 -131.32965606 134.39644336 -150 153 C-134.94459958 153.07007352 -119.88921179 153.12298003 -104.83368301 153.15543652 C-97.84316813 153.17090704 -90.85275455 153.19199997 -83.86230469 153.22631836 C-77.11906283 153.25940735 -70.3759481 153.27684192 -63.63262177 153.28463173 C-61.05694672 153.29018474 -58.4812776 153.30102805 -55.90564728 153.31719017 C-52.30448336 153.33889353 -48.70375761 153.34196983 -45.10253906 153.34057617 C-44.0322345 153.351362 -42.96192993 153.36214783 -41.85919189 153.3732605 C-40.87765137 153.36913651 -39.89611084 153.36501251 -38.88482666 153.36076355 C-38.03308994 153.36352893 -37.18135323 153.36629431 -36.3038063 153.36914349 C-32.23887827 152.71781195 -29.7525436 149.89017078 -27 147 C-25 148.375 -25 148.375 -23 150 C-23 150.66 -23 151.32 -23 152 C-23.928125 152.185625 -23.928125 152.185625 -24.875 152.375 C-27.19120832 152.87197356 -27.19120832 152.87197356 -29 155 C-34.79030039 156.49812933 -40.85129577 156.13275845 -46.78857422 156.11352539 C-47.96963242 156.11367142 -49.15069061 156.11381744 -50.36753845 156.1139679 C-53.59230442 156.11339217 -56.81702654 156.10838996 -60.04178381 156.10139394 C-63.41702425 156.09512658 -66.79226563 156.09455393 -70.16751099 156.09336853 C-76.55281833 156.09026517 -82.93810847 156.08206523 -89.32340825 156.07201904 C-96.59547435 156.06082696 -103.86754129 156.05533966 -111.13961387 156.05032361 C-126.09308548 156.03988176 -141.04654102 156.02230164 -156 156 C-151.37950552 150.45753295 -146.46647735 145.31828232 -141.36425781 140.21899414 C-140.09492149 138.9446199 -140.09492149 138.9446199 -138.79994202 137.64450073 C-136.49845685 135.33519116 -134.19474807 133.02813235 -131.88966846 130.72241139 C-130.44881171 129.28084082 -129.00867054 127.83855932 -127.56877899 126.3960247 C-122.54397503 121.3620011 -117.51662712 116.33053462 -112.48681641 111.30151367 C-107.79809181 106.61339238 -103.11500228 101.91969307 -98.43445516 97.22340876 C-94.40986718 93.18577162 -90.38146017 89.15197227 -86.35002208 85.12117475 C-83.94438507 82.71579305 -81.5403365 80.30887396 -79.14011383 77.89808846 C-76.47082209 75.21906608 -73.79535014 72.54637429 -71.11816406 69.87524414 C-70.32126663 69.0727272 -69.5243692 68.27021027 -68.70332336 67.44337463 C-67.97721359 66.72145935 -67.25110382 65.99954407 -66.50299072 65.25575256 C-65.8710593 64.62327638 -65.23912788 63.99080019 -64.58804703 63.33915806 C-63 62 -63 62 -61 62 C-60.5968457 61.11006348 -60.5968457 61.11006348 -60.18554688 60.20214844 C-58.99709268 57.99459967 -57.79257611 56.53457118 -56.03125 54.765625 C-55.46019531 54.19199219 -54.88914062 53.61835938 -54.30078125 53.02734375 C-53.70652344 52.44082031 -53.11226562 51.85429687 -52.5 51.25 C-51.90574219 50.64800781 -51.31148437 50.04601562 -50.69921875 49.42578125 C-50.12816406 48.85730469 -49.55710937 48.28882813 -48.96875 47.703125 C-48.44732422 47.18395508 -47.92589844 46.66478516 -47.38867188 46.12988281 C-46 45 -46 45 -44 45 C-43.67 44.01 -43.34 43.02 -43 42 C-42.34 42 -41.68 42 -41 42 C-40.67 41.01 -40.34 40.02 -40 39 C-39.34 39 -38.68 39 -38 39 C-37.67 38.01 -37.34 37.02 -37 36 C-36.34 36 -35.68 36 -35 36 C-35 35.34 -35 34.68 -35 34 C-33.33784732 32.66104368 -31.67036393 31.32869858 -30 30 C-28.9171875 28.63875 -28.9171875 28.63875 -27.8125 27.25 C-27.214375 26.5075 -26.61625 25.765 -26 25 C-25.34 25 -24.68 25 -24 25 C-23.67 24.01 -23.34 23.02 -23 22 C-22.34 22 -21.68 22 -21 22 C-21 21.34 -21 20.68 -21 20 C-19.70703125 18.73046875 -19.70703125 18.73046875 -17.8125 17.1875 C-11.50477121 11.84581976 -5.79990037 5.87947217 0 0 Z " fill="#818181" transform="translate(1035,140)"/>
<path d="M0 0 C0 0.33 0 0.66 0 1 C-4.43501926 1.86960011 -8.53751516 2.08105211 -13.05189705 1.97106647 C-13.7415194 1.9559329 -14.43114176 1.94079933 -15.14166176 1.92520717 C-16.65110777 1.89135209 -18.16049681 1.85487983 -19.66982462 1.81611118 C-22.14492533 1.75262028 -24.62010665 1.69609155 -27.09541118 1.6411497 C-30.73651671 1.55970562 -34.37754143 1.47544344 -38.01853371 1.38908577 C-48.14999054 1.15010404 -58.2819982 0.93669705 -68.41409302 0.72676086 C-70.02838612 0.69319752 -70.02838612 0.69319752 -71.67529121 0.65895613 C-88.68740939 0.30839018 -105.69960366 0.04333156 -122.71408081 -0.16120911 C-124.44519069 -0.18205892 -124.44519069 -0.18205892 -126.21127249 -0.20332994 C-138.15541336 -0.34577498 -150.09965124 -0.47691911 -162.04402686 -0.59802009 C-168.18400021 -0.66067309 -174.32394114 -0.72609179 -180.46386719 -0.79321289 C-182.29682743 -0.81318316 -182.29682743 -0.81318316 -184.16681717 -0.83355687 C-203.83138073 -1.05401009 -223.48593233 -1.48383683 -243.14488961 -1.99322685 C-263.41308022 -2.51349192 -283.67528407 -2.7972301 -303.95003593 -2.87367231 C-315.30429269 -2.92303027 -326.63632134 -3.07401461 -337.98328018 -3.49843407 C-395.70861151 -6.18475486 -395.70861151 -6.18475486 -444.60809457 20.72960371 C-457.33582417 32.88851151 -468.59770091 46.47536534 -479.01029193 60.64257735 C-481 63 -481 63 -484 64 C-483.67 63.01 -483.34 62.02 -483 61 C-482.34 61 -481.68 61 -481 61 C-481 60.34 -481 59.68 -481 59 C-479.33784732 57.66104368 -477.67036393 56.32869858 -476 55 C-475.278125 54.0925 -474.55625 53.185 -473.8125 52.25 C-473.214375 51.5075 -472.61625 50.765 -472 50 C-471.34 50 -470.68 50 -470 50 C-469.67 49.01 -469.34 48.02 -469 47 C-468.34 47 -467.68 47 -467 47 C-466.67 46.01 -466.34 45.02 -466 44 C-465.34 44 -464.68 44 -464 44 C-464 43.34 -464 42.68 -464 42 C-462.33784732 40.66104368 -460.67036393 39.32869858 -459 38 C-457.9171875 36.63875 -457.9171875 36.63875 -456.8125 35.25 C-456.214375 34.5075 -455.61625 33.765 -455 33 C-454.34 33 -453.68 33 -453 33 C-452.67 32.01 -452.34 31.02 -452 30 C-451.34 30 -450.68 30 -450 30 C-449.505 28.515 -449.505 28.515 -449 27 C-448.34 27 -447.68 27 -447 27 C-447 26.34 -447 25.68 -447 25 C-445.34997172 23.64613064 -443.6825613 22.31321858 -442 21 C-441.67 20.34 -441.34 19.68 -441 19 C-440.34 19 -439.68 19 -439 19 C-438.505 17.515 -438.505 17.515 -438 16 C-437.34 16 -436.68 16 -436 16 C-435.67 15.01 -435.34 14.02 -435 13 C-434.34 13 -433.68 13 -433 13 C-432.67 12.01 -432.34 11.02 -432 10 C-431.34 10 -430.68 10 -430 10 C-430 9.34 -430 8.68 -430 8 C-428.36395804 6.62926214 -426.69321939 5.29944744 -425 4 C-424.59007582 3.47039663 -424.18015165 2.94079326 -423.75780553 2.3951413 C-421.02692023 0.22768261 -418.62882313 0.62045693 -415.18761158 0.61523914 C-414.13753438 0.60751428 -414.13753438 0.60751428 -413.0662435 0.59963337 C-410.70266249 0.58593549 -408.33963032 0.59372104 -405.97602844 0.60127258 C-404.27146891 0.59583728 -402.56691314 0.58908747 -400.86236352 0.58113068 C-396.16429135 0.56302977 -391.46637663 0.56367169 -386.76827776 0.56726015 C-381.70675427 0.56788196 -376.64528455 0.55128264 -371.58378601 0.53674316 C-362.80792663 0.51390761 -354.03210707 0.50206337 -345.25621986 0.49761391 C-332.55895867 0.49116084 -319.86176946 0.46823681 -307.16453721 0.44127061 C-286.55411891 0.39794873 -265.94370363 0.36801511 -245.33325195 0.34643555 C-225.32835392 0.32546161 -205.32348082 0.29821065 -185.31860352 0.26245117 C-184.08729874 0.26025235 -182.85599397 0.25805352 -181.58737693 0.25578807 C-175.40931217 0.24471702 -169.23124763 0.23352353 -163.0531832 0.22227156 C-124.3236362 0.15186939 -85.59408454 0.0911533 -46.86450195 0.04418945 C-45.38981955 0.04239577 -45.38981955 0.04239577 -43.88534558 0.04056585 C-37.47652718 0.03279064 -31.06770859 0.02520013 -24.65888977 0.01777649 C-23.85119394 0.01683335 -23.0434981 0.01589021 -22.21132664 0.01491848 C-19.95474919 0.0123032 -17.69817168 0.00975647 -15.44159412 0.00723743 C-14.18862437 0.00582589 -12.93565462 0.00441435 -11.64471608 0.00296003 C-7.76314092 -0.00019236 -3.88157624 -0.0004967 0 0 Z " fill="#282828" transform="translate(612,618)"/>
<path d="M0 0 C3.83078469 1.56069006 6.14143762 4.06814114 9 7 C9.99 7.66 10.98 8.32 12 9 C12 9.66 12 10.32 12 11 C12.66 11 13.32 11 14 11 C14 11.66 14 12.32 14 13 C14.66 13 15.32 13 16 13 C18.125 14.875 18.125 14.875 20 17 C20 17.66 20 18.32 20 19 C20.66 19 21.32 19 22 19 C22 19.66 22 20.32 22 21 C22.66 21 23.32 21 24 21 C25.4375 22.49609375 25.4375 22.49609375 27 24.4375 C29.14525044 27.15188238 29.14525044 27.15188238 32 29 C32.144375 29.639375 32.28875 30.27875 32.4375 30.9375 C32.86165035 33.38210855 32.86165035 33.38210855 36 35 C36.66 35 37.32 35 38 35 C39.35386936 36.65002828 40.68678142 38.3174387 42 40 C42.99 40.495 42.99 40.495 44 41 C44.144375 41.639375 44.28875 42.27875 44.4375 42.9375 C44.86165035 45.38210855 44.86165035 45.38210855 48 47 C48.66 47 49.32 47 50 47 C50 47.66 50 48.32 50 49 C50.66 49 51.32 49 52 49 C52 49.66 52 50.32 52 51 C52.99 51.33 53.98 51.66 55 52 C52.83704973 54.16295027 51.94755143 54.5534013 49 55 C48.01 54.67 47.02 54.34 46 54 C46 52.35 46 50.7 46 49 C44.35 49 42.7 49 41 49 C39.875 45.25 39.875 45.25 41 43 C38.69 42.67 36.38 42.34 34 42 C33.67 40.35 33.34 38.7 33 37 C31.68 37 30.36 37 29 37 C27.95550089 33.86650268 28.06576355 33.01031744 29 30 C26.03 30.495 26.03 30.495 23 31 C22.34 29.02 21.68 27.04 21 25 C19.68 25 18.36 25 17 25 C16.67 23.02 16.34 21.04 16 19 C14.35 19 12.7 19 11 19 C10.67 17.02 10.34 15.04 10 13 C7.525 12.505 7.525 12.505 5 12 C5 10.68 5 9.36 5 8 C3.35 7.67 1.7 7.34 0 7 C0 8.98 0 10.96 0 13 C-1.45792884 13.05399736 -2.91642712 13.09279177 -4.375 13.125 C-5.18710938 13.14820313 -5.99921875 13.17140625 -6.8359375 13.1953125 C-9 13 -9 13 -11 11 C-10.01 10.34 -9.02 9.68 -8 9 C-6.9805881 8.01979625 -5.97753644 7.02196992 -5 6 C-3.33333333 4.33333333 -1.66666667 2.66666667 0 1 C0 0.67 0 0.34 0 0 Z M-3 8 C-3.33 8.66 -3.66 9.32 -4 10 C-3.34 10 -2.68 10 -2 10 C-2.33 9.34 -2.66 8.68 -3 8 Z " fill="#070707" transform="translate(1098,196)"/>
<path d="M0 0 C2.5 1.375 2.5 1.375 5 3 C5 3.66 5 4.32 5 5 C4.071875 5.185625 4.071875 5.185625 3.125 5.375 C0.80879168 5.87197356 0.80879168 5.87197356 -1 8 C-6.79030039 9.49812933 -12.85129577 9.13275845 -18.78857422 9.11352539 C-19.96963242 9.11367142 -21.15069061 9.11381744 -22.36753845 9.1139679 C-25.59230442 9.11339217 -28.81702654 9.10838996 -32.04178381 9.10139394 C-35.41702425 9.09512658 -38.79226563 9.09455393 -42.16751099 9.09336853 C-48.55281833 9.09026517 -54.93810847 9.08206523 -61.32340825 9.07201904 C-68.59547435 9.06082696 -75.86754129 9.05533966 -83.13961387 9.05032361 C-98.09308548 9.03988176 -113.04654102 9.02230164 -128 9 C-127.34 8.01 -126.68 7.02 -126 6 C-123.89099312 5.63923645 -123.89099312 5.63923645 -121.23074341 5.65942383 C-120.22407623 5.65963531 -119.21740906 5.6598468 -118.18023682 5.6600647 C-117.07162292 5.67556366 -115.96300903 5.69106262 -114.82080078 5.70703125 C-113.07435776 5.71360245 -113.07435776 5.71360245 -111.29263306 5.7203064 C-108.75748021 5.73174722 -106.22235158 5.75012083 -103.68729019 5.77450562 C-99.67864002 5.81265868 -95.67013124 5.83274275 -91.66134644 5.84692383 C-82.42543773 5.88309312 -73.18978775 5.94920205 -63.95405579 6.01560974 C-55.49572092 6.07613823 -47.03747377 6.13036059 -38.57896793 6.16025448 C-33.95166864 6.17761506 -29.32488922 6.21837057 -24.69778442 6.26293945 C-22.2778562 6.27383538 -19.857924 6.28389078 -17.43798828 6.29296875 C-15.78114014 6.31621719 -15.78114014 6.31621719 -14.09082031 6.3399353 C-13.07851349 6.34014679 -12.06620667 6.34035828 -11.02322388 6.34057617 C-10.14458742 6.34723801 -9.26595097 6.35389984 -8.36068916 6.36076355 C-5.45699696 5.91701758 -4.14673255 4.97505245 -2 3 C-1.34 2.01 -0.68 1.02 0 0 Z " fill="#757575" transform="translate(1007,287)"/>
<path d="M0 0 C1.32 0 2.64 0 4 0 C4 0.66 4 1.32 4 2 C52.84 2 101.68 2 152 2 C152 1.34 152 0.68 152 0 C155.96 0 159.92 0 164 0 C164.33 1.98 164.66 3.96 165 6 C166.65 6 168.3 6 170 6 C169.979375 6.804375 169.95875 7.60875 169.9375 8.4375 C169.70366379 10.93354885 169.70366379 10.93354885 171 12 C171.04092937 14.33297433 171.04241723 16.66705225 171 19 C169.56056076 17.106001 168.14174883 15.2059716 166.79296875 13.24609375 C166.36628906 12.62863281 165.93960937 12.01117188 165.5 11.375 C164.89671875 10.48941406 164.89671875 10.48941406 164.28125 9.5859375 C161.38399428 5.99970023 158.355135 5.51908675 154 5 C151.81659524 4.90739796 149.63085042 4.86271144 147.44549561 4.85523987 C146.14435822 4.84834137 144.84322083 4.84144287 143.50265503 4.83433533 C142.07305922 4.83162125 140.64346327 4.82898404 139.21386719 4.82641602 C137.69900321 4.8201056 136.18414108 4.81333926 134.66928101 4.80615234 C131.41505061 4.79152205 128.1608272 4.77978177 124.90657806 4.77020454 C119.76395831 4.75472424 114.62139952 4.73077853 109.4788208 4.70530701 C94.8583155 4.63416722 80.23777653 4.57419502 65.6171875 4.52319336 C57.53649275 4.49493064 49.45585994 4.45957993 41.37523007 4.41653961 C36.25936252 4.38971996 31.14356493 4.37184486 26.02764082 4.36050236 C22.85247449 4.35140286 19.67739376 4.33405513 16.50227737 4.31432343 C15.0260235 4.30682564 13.54974773 4.30276553 12.07347488 4.30232811 C10.06448095 4.30125177 8.05550702 4.28687994 6.04656982 4.27174377 C4.92055737 4.26751184 3.79454491 4.2632799 2.63441086 4.25891972 C0 4 0 4 -2 2 C-1.34 1.34 -0.68 0.68 0 0 Z " fill="#181818" transform="translate(987,72)"/>
<path d="M0 0 C0.66 0 1.32 0 2 0 C0.38330785 4.04489386 -2.48453857 6.76642316 -5.51953125 9.77832031 C-6.08231781 10.34461151 -6.64510437 10.91090271 -7.22494507 11.49435425 C-9.08247044 13.36066702 -10.94719782 15.21958718 -12.8125 17.078125 C-14.10551762 18.37248975 -15.39823822 19.66715128 -16.69067383 20.96209717 C-19.39763755 23.67200778 -22.10818211 26.37827154 -24.82128906 29.08203125 C-28.30531153 32.55463671 -31.78024903 36.03617321 -35.25257874 39.52046585 C-37.91859914 42.1936971 -40.58934468 44.86216643 -43.26156616 47.52919769 C-44.54530841 48.81160248 -45.82755756 50.09550367 -47.10830688 51.38089752 C-48.89424516 53.17189072 -50.68642648 54.95638758 -52.48046875 56.73925781 C-53.01247894 57.27531647 -53.54448914 57.81137512 -54.09262085 58.36367798 C-57.77146851 62 -57.77146851 62 -60 62 C-60 61.34 -60 60.68 -60 60 C-58.34997172 58.64613064 -56.6825613 57.31321858 -55 56 C-54.67 55.34 -54.34 54.68 -54 54 C-53.34 54 -52.68 54 -52 54 C-51.67 53.01 -51.34 52.02 -51 51 C-50.34 51 -49.68 51 -49 51 C-48.67 50.01 -48.34 49.02 -48 48 C-47.34 48 -46.68 48 -46 48 C-45.67 47.01 -45.34 46.02 -45 45 C-44.34 45 -43.68 45 -43 45 C-42.67 44.01 -42.34 43.02 -42 42 C-41.34 42 -40.68 42 -40 42 C-40 41.34 -40 40.68 -40 40 C-38.625 38.375 -38.625 38.375 -37 37 C-36.34 37 -35.68 37 -35 37 C-34.67 36.01 -34.34 35.02 -34 34 C-33.34 34 -32.68 34 -32 34 C-31.67 33.01 -31.34 32.02 -31 31 C-30.34 31 -29.68 31 -29 31 C-28.67 30.01 -28.34 29.02 -28 28 C-27.34 28 -26.68 28 -26 28 C-26 27.34 -26 26.68 -26 26 C-24.625 24.375 -24.625 24.375 -23 23 C-22.34 23 -21.68 23 -21 23 C-20.505 21.515 -20.505 21.515 -20 20 C-19.34 20 -18.68 20 -18 20 C-17.505 18.515 -17.505 18.515 -17 17 C-16.34 17 -15.68 17 -15 17 C-14.505 15.515 -14.505 15.515 -14 14 C-13.34 14 -12.68 14 -12 14 C-11.67 13.01 -11.34 12.02 -11 11 C-10.34 11 -9.68 11 -9 11 C-9 10.34 -9 9.68 -9 9 C-7.625 7.375 -7.625 7.375 -6 6 C-5.34 6 -4.68 6 -4 6 C-3.67 5.01 -3.34 4.02 -3 3 C-2.34 3 -1.68 3 -1 3 C-0.67 2.01 -0.34 1.02 0 0 Z " fill="#7C7C7C" transform="translate(273,535)"/>
<path d="M0 0 C0.99 0.33 1.98 0.66 3 1 C-4.76533539 8.81162604 -12.53602699 16.61787957 -20.31364918 24.41727352 C-23.92473553 28.03880792 -27.53393347 31.66218376 -31.13891602 35.28979492 C-34.61639566 38.78896641 -38.09870351 42.28326444 -41.58444786 45.77420235 C-42.91508679 47.10854361 -44.24396088 48.44464717 -45.57105446 49.78251457 C-47.42663293 51.65255917 -49.28832347 53.51630344 -51.15161133 55.37866211 C-51.70186981 55.93611115 -52.2521283 56.49356018 -52.81906128 57.06790161 C-55.20137181 59.43734357 -56.76564775 60.92188258 -60 62 C-59.67 61.01 -59.34 60.02 -59 59 C-58.34 59 -57.68 59 -57 59 C-57 58.34 -57 57.68 -57 57 C-55.33784732 55.66104368 -53.67036393 54.32869858 -52 53 C-51.278125 52.0925 -50.55625 51.185 -49.8125 50.25 C-49.214375 49.5075 -48.61625 48.765 -48 48 C-47.34 48 -46.68 48 -46 48 C-45.67 47.01 -45.34 46.02 -45 45 C-44.34 45 -43.68 45 -43 45 C-42.67 44.01 -42.34 43.02 -42 42 C-41.34 42 -40.68 42 -40 42 C-40 41.34 -40 40.68 -40 40 C-38.33784732 38.66104368 -36.67036393 37.32869858 -35 36 C-33.9171875 34.63875 -33.9171875 34.63875 -32.8125 33.25 C-32.214375 32.5075 -31.61625 31.765 -31 31 C-30.34 31 -29.68 31 -29 31 C-28.67 30.01 -28.34 29.02 -28 28 C-27.34 28 -26.68 28 -26 28 C-25.505 26.515 -25.505 26.515 -25 25 C-24.34 25 -23.68 25 -23 25 C-23 24.34 -23 23.68 -23 23 C-21.34997172 21.64613064 -19.6825613 20.31321858 -18 19 C-17.67 18.34 -17.34 17.68 -17 17 C-16.34 17 -15.68 17 -15 17 C-14.505 15.515 -14.505 15.515 -14 14 C-13.34 14 -12.68 14 -12 14 C-11.67 13.01 -11.34 12.02 -11 11 C-10.34 11 -9.68 11 -9 11 C-8.67 10.01 -8.34 9.02 -8 8 C-7.34 8 -6.68 8 -6 8 C-6 7.34 -6 6.68 -6 6 C-4.34997172 4.64613064 -2.6825613 3.31321858 -1 2 C-0.67 1.34 -0.34 0.68 0 0 Z " fill="#7E7E7E" transform="translate(188,620)"/>
<path d="M0 0 C3.22366505 1.07455502 3.82638112 1.70306842 5.875 4.25 C8.94704906 7.96999986 12.16061985 11.46718321 15.875 14.5625 C16.431875 15.2740625 16.431875 15.2740625 17 16 C16.6875 18.1875 16.6875 18.1875 16 20 C14.35 20.33 12.7 20.66 11 21 C9.875 15.25 9.875 15.25 11 13 C8.69 13 6.38 13 4 13 C4 11.02 4 9.04 4 7 C2.02 7 0.04 7 -2 7 C-2.125 4.625 -2.125 4.625 -2 2 C-1.34 1.34 -0.68 0.68 0 0 Z " fill="#070707" transform="translate(1022,119)"/>
<path d="M0 0 C0.66 0.66 1.32 1.32 2 2 C4.10820797 1.6814823 4.10820797 1.6814823 6 1 C5.7525 1.721875 5.505 2.44375 5.25 3.1875 C4.70707914 6.09035698 4.70707914 6.09035698 6.5625 8.5 C8.38049536 10.36461062 10.11082658 11.9442329 12.125 13.5625 C14.67675529 15.7259447 15.86489475 16.93521583 17 20 C12.25 22 12.25 22 10 22 C10 20.35 10 18.7 10 17 C8.02 16.34 6.04 15.68 4 15 C3.67 13.35 3.34 11.7 3 10 C2.01 10 1.02 10 0 10 C-2.21538462 4.58461538 -2.21538462 4.58461538 -1.125 1.625 C-0.75375 1.08875 -0.3825 0.5525 0 0 Z M2 4 C3 6 3 6 3 6 Z " fill="#050505" transform="translate(981,75)"/>
<path d="M0 0 C3.96 0 7.92 0 12 0 C12.33 1.98 12.66 3.96 13 6 C14.65 6 16.3 6 18 6 C17.979375 6.804375 17.95875 7.60875 17.9375 8.4375 C17.70366379 10.93354885 17.70366379 10.93354885 19 12 C19.04092937 14.33297433 19.04241723 16.66705225 19 19 C17.56056076 17.106001 16.14174883 15.2059716 14.79296875 13.24609375 C14.36628906 12.62863281 13.93960937 12.01117188 13.5 11.375 C13.0978125 10.78460938 12.695625 10.19421875 12.28125 9.5859375 C10.50046449 7.38167251 8.69367582 6.16816383 5.9375 5.5 C4 5 4 5 2 3 C1.34 2.67 0.68 2.34 0 2 C0 1.34 0 0.68 0 0 Z " fill="#060606" transform="translate(1139,72)"/>
<path d="M0 0 C0.66 0 1.32 0 2 0 C3.22809298 1.4272432 4.45048041 2.86038617 5.625 4.33203125 C7.59722375 6.72447313 9.77711619 8.84062716 12 11 C11.01 12.485 11.01 12.485 10 14 C8.35 13.67 6.7 13.34 5 13 C4.67 11.68 4.34 10.36 4 9 C2.35 8.67 0.7 8.34 -1 8 C-2.2077558 4.37673261 -1.54311128 3.35853631 0 0 Z " fill="#080808" transform="translate(998,95)"/>
<path d="M0 0 C0.66 0.33 1.32 0.66 2 1 C-6.25 9.25 -14.5 17.5 -23 26 C-23.66 25.67 -24.32 25.34 -25 25 C-17.2037088 16.14913801 -9.2816482 7.327617 0 0 Z " fill="#808080" transform="translate(453,276)"/>
<path d="M0 0 C-0.33 0.99 -0.66 1.98 -1 3 C-1.66 3 -2.32 3 -3 3 C-3 4.98 -3 6.96 -3 9 C-3.99 9 -4.98 9 -6 9 C-6.33 9.99 -6.66 10.98 -7 12 C-10 14 -10 14 -12.1875 13.625 C-12.785625 13.41875 -13.38375 13.2125 -14 13 C-14 12.01 -14 11.02 -14 10 C-13.34 9.67 -12.68 9.34 -12 9 C-10.48586709 7.27388849 -9.06431903 5.48641051 -7.6328125 3.69140625 C-5.37551634 1.35310664 -3.29288508 0 0 0 Z M-8 5 C-7 7 -7 7 -7 7 Z " fill="#040404" transform="translate(1024,274)"/>
<path d="M0 0 C0.66 0 1.32 0 2 0 C3.5078125 1.53125 3.5078125 1.53125 5.125 3.5 C5.66382813 4.1496875 6.20265625 4.799375 6.7578125 5.46875 C7.16773438 5.9740625 7.57765625 6.479375 8 7 C6.625 8.5 6.625 8.5 5 10 C4.34 10 3.68 10 3 10 C3 11.65 3 13.3 3 15 C2.01 15 1.02 15 0 15 C0.01160156 14.32453125 0.02320313 13.6490625 0.03515625 12.953125 C0.04417969 12.06109375 0.05320312 11.1690625 0.0625 10.25 C0.07990234 8.92742187 0.07990234 8.92742187 0.09765625 7.578125 C0.08955644 5.02821052 0.08955644 5.02821052 -0.56640625 2.734375 C-0.70949219 2.16203125 -0.85257813 1.5896875 -1 1 C-0.67 0.67 -0.34 0.34 0 0 Z " fill="#090909" transform="translate(1014,111)"/>
<path d="M0 0 C0.66 0.33 1.32 0.66 2 1 C-5.59 8.59 -13.18 16.18 -21 24 C-21.66 23.67 -22.32 23.34 -23 23 C-15.90092645 14.6801863 -8.08772182 7.33992393 0 0 Z " fill="#7A7A7A" transform="translate(391,205)"/>
<path d="M0 0 C1.32 0.99 2.64 1.98 4 3 C3.34 3 2.68 3 2 3 C1.9175 3.5775 1.835 4.155 1.75 4.75 C0.78645193 7.64064422 -0.76616011 8.96923646 -3 11 C-3.66 11.66 -4.32 12.32 -5 13 C-5.99 12.34 -6.98 11.68 -8 11 C-8.99 11 -9.98 11 -11 11 C-9.02 9.35 -7.04 7.7 -5 6 C-4.34 6.33 -3.68 6.66 -3 7 C-2.87625 6.21625 -2.7525 5.4325 -2.625 4.625 C-2 2 -2 2 0 0 Z " fill="#050505" transform="translate(1072,222)"/>
<path d="M0 0 C1.32 0 2.64 0 4 0 C4 0.66 4 1.32 4 2 C15.88 2.33 27.76 2.66 40 3 C40 3.33 40 3.66 40 4 C34.34001954 4.04934926 28.68016364 4.08569529 23.02001953 4.10986328 C21.09356506 4.11993582 19.16712592 4.13359443 17.24072266 4.15087891 C14.47554748 4.17507241 11.710574 4.18647036 8.9453125 4.1953125 C8.0806839 4.20563507 7.2160553 4.21595764 6.32522583 4.22659302 C4.21546479 4.22699106 2.10619282 4.12265243 0 4 C-0.66 3.34 -1.32 2.68 -2 2 C-1.34 1.34 -0.68 0.68 0 0 Z " fill="#111111" transform="translate(987,72)"/>
<path d="M0 0 C1.83832664 3.10217621 2.47446226 5.39408679 2 9 C-1.6441774 11.4294516 -3.71241272 11.16179575 -8 11 C-8 10.01 -8 9.02 -8 8 C-7.401875 7.938125 -6.80375 7.87625 -6.1875 7.8125 C-2.57441547 6.47049717 -1.64483163 3.28966325 0 0 Z M-1 5 C0 7 0 7 0 7 Z " fill="#030303" transform="translate(1043,251)"/>
<path d="M0 0 C0 1.32 0 2.64 0 4 C-0.66 4 -1.32 4 -2 4 C-2 4.66 -2 5.32 -2 6 C-2.66 6.66 -3.32 7.32 -4 8 C-4 8.66 -4 9.32 -4 10 C-4.66 10 -5.32 10 -6 10 C-7.62514468 11.45833358 -7.62514468 11.45833358 -9 13 C-10 11 -10 11 -9.375 8.1875 C-7.43646204 3.69361655 -5.18337039 0 0 0 Z " fill="#040404" transform="translate(1086,211)"/>
<path d="M0 0 C0.66 0.33 1.32 0.66 2 1 C2 3.31 2 5.62 2 8 C1.34 8 0.68 8 0 8 C0 8.99 0 9.98 0 11 C-2.64 11 -5.28 11 -8 11 C-8 10.01 -8 9.02 -8 8 C-7.236875 7.979375 -6.47375 7.95875 -5.6875 7.9375 C-2.58610882 7.20339051 -2.58610882 7.20339051 -1.1875 3.4375 C-0.795625 2.303125 -0.40375 1.16875 0 0 Z M-1 5 C0 8 0 8 0 8 Z " fill="#030303" transform="translate(1055,239)"/>
<path d="M0 0 C2.5 1.375 2.5 1.375 5 3 C5 3.66 5 4.32 5 5 C4.38125 5.12375 3.7625 5.2475 3.125 5.375 C0.80879168 5.87197356 0.80879168 5.87197356 -1 8 C-4.125 8.125 -4.125 8.125 -7 8 C-6.401875 7.4225 -5.80375 6.845 -5.1875 6.25 C-3.2517316 4.25892393 -1.61090717 2.25527003 0 0 Z " fill="#060606" transform="translate(1007,287)"/>
<path d="M0 0 C2 2 2 2 2.1953125 4.1640625 C2.17210937 4.97617187 2.14890625 5.78828125 2.125 6.625 C2.10695313 7.44226563 2.08890625 8.25953125 2.0703125 9.1015625 C2.03550781 10.04128906 2.03550781 10.04128906 2 11 C0.68 11 -0.64 11 -2 11 C-2 10.34 -2 9.68 -2 9 C-2.66 9 -3.32 9 -4 9 C-2.25 2.25 -2.25 2.25 0 0 Z M-1 6 C-1.33 6.66 -1.66 7.32 -2 8 C-1.34 8 -0.68 8 0 8 C-0.33 7.34 -0.66 6.68 -1 6 Z " fill="#030303" transform="translate(1031,263)"/>
<path d="M0 0 C0.33 0 0.66 0 1 0 C1 2.31 1 4.62 1 7 C-3.29 7 -7.58 7 -12 7 C-12 6.34 -12 5.68 -12 5 C-8.37 5 -4.74 5 -1 5 C-0.67 3.35 -0.34 1.7 0 0 Z " fill="#000000" transform="translate(1003,137)"/>
<path d="M0 0 C0.66 0.33 1.32 0.66 2 1 C-2.29 5.29 -6.58 9.58 -11 14 C-11.66 13.67 -12.32 13.34 -13 13 C-9.0580583 8.11950075 -4.88049925 3.9419417 0 0 Z " fill="#B94404" transform="translate(510,341)"/>
<path d="M0 0 C0.66 0 1.32 0 2 0 C2.66 1.32 3.32 2.64 4 4 C2.625 6 2.625 6 1 8 C0.34 8 -0.32 8 -1 8 C-1.625 5.125 -1.625 5.125 -2 2 C-1.34 1.34 -0.68 0.68 0 0 Z M0 1 C1 4 1 4 1 4 Z " fill="#050505" transform="translate(1010,107)"/>
<path d="M0 0 C1.98 0 3.96 0 6 0 C5.67 1.32 5.34 2.64 5 4 C3.35 4.33 1.7 4.66 0 5 C0 3.35 0 1.7 0 0 Z " fill="#000000" transform="translate(1026,137)"/>
<path d="M0 0 C0.33 0 0.66 0 1 0 C1 2.31 1 4.62 1 7 C2.32 7 3.64 7 5 7 C5 4.69 5 2.38 5 0 C5.33 0 5.66 0 6 0 C6 2.64 6 5.28 6 8 C4.02 8 2.04 8 0 8 C0 5.36 0 2.72 0 0 Z " fill="#000000" transform="translate(997,66)"/>
<path d="M0 0 C0.99 0 1.98 0 3 0 C3 1.98 3 3.96 3 6 C2.01 6 1.02 6 0 6 C0 4.02 0 2.04 0 0 Z " fill="#000000" transform="translate(969,102)"/>
<path d="M0 0 C0 0.66 0 1.32 0 2 C-5.61 2 -11.22 2 -17 2 C-17 1.67 -17 1.34 -17 1 C-15.10440036 0.83069605 -13.20850769 0.66467136 -11.3125 0.5 C-10.25675781 0.4071875 -9.20101563 0.314375 -8.11328125 0.21875 C-5.39363975 0.0276585 -2.72460144 -0.04043935 0 0 Z " fill="#000000" transform="translate(1138,72)"/>
<path d="M0 0 C0.99 0 1.98 0 3 0 C3 1.98 3 3.96 3 6 C2.01 6 1.02 6 0 6 C0 4.02 0 2.04 0 0 Z " fill="#000000" transform="translate(918,61)"/>
<path d="M0 0 C0.99 0 1.98 0 3 0 C3 1.98 3 3.96 3 6 C2.01 6 1.02 6 0 6 C0 4.02 0 2.04 0 0 Z " fill="#000000" transform="translate(963,55)"/>
<path d="M0 0 C1.65 0 3.3 0 5 0 C5 0.66 5 1.32 5 2 C1.53846154 5 1.53846154 5 -1 5 C-0.67 3.35 -0.34 1.7 0 0 Z " fill="#030303" transform="translate(1060,234)"/>
<path d="M0 0 C2.31 0 4.62 0 7 0 C7 0.66 7 1.32 7 2 C4.69 2 2.38 2 0 2 C0 1.34 0 0.68 0 0 Z " fill="#000000" transform="translate(979,142)"/>
<path d="M0 0 C2.31 0 4.62 0 7 0 C7 0.66 7 1.32 7 2 C4.69 2 2.38 2 0 2 C0 1.34 0 0.68 0 0 Z " fill="#000000" transform="translate(967,142)"/>
<path d="M0 0 C2.31 0 4.62 0 7 0 C7 0.66 7 1.32 7 2 C4.69 2 2.38 2 0 2 C0 1.34 0 0.68 0 0 Z " fill="#000000" transform="translate(949,108)"/>
<path d="M0 0 C2.31 0 4.62 0 7 0 C7 0.66 7 1.32 7 2 C4.69 2 2.38 2 0 2 C0 1.34 0 0.68 0 0 Z " fill="#000000" transform="translate(819,96)"/>
<path d="M0 0 C0.66 0 1.32 0 2 0 C2 2.31 2 4.62 2 7 C1.34 6.67 0.68 6.34 0 6 C0 4.02 0 2.04 0 0 Z " fill="#000000" transform="translate(993,102)"/>
<path d="M0 0 C0.66 0 1.32 0 2 0 C2 2.31 2 4.62 2 7 C1.34 6.67 0.68 6.34 0 6 C0 4.02 0 2.04 0 0 Z " fill="#000000" transform="translate(883,102)"/>
<path d="M0 0 C0.66 0 1.32 0 2 0 C2 1.98 2 3.96 2 6 C1.01 6.495 1.01 6.495 0 7 C0 4.69 0 2.38 0 0 Z " fill="#000000" transform="translate(842,102)"/>
<path d="M0 0 C1.98 0 3.96 0 6 0 C6 0.66 6 1.32 6 2 C4.02 2 2.04 2 0 2 C0 1.34 0 0.68 0 0 Z " fill="#000000" transform="translate(926,142)"/>
<path d="M0 0 C0.66 0 1.32 0 2 0 C2 1.98 2 3.96 2 6 C1.34 6 0.68 6 0 6 C0 4.02 0 2.04 0 0 Z " fill="#000000" transform="translate(1002,120)"/>
<path d="M0 0 C0.66 0 1.32 0 2 0 C2 1.98 2 3.96 2 6 C1.34 6 0.68 6 0 6 C0 4.02 0 2.04 0 0 Z " fill="#000000" transform="translate(999,120)"/>
<path d="M0 0 C0.66 0 1.32 0 2 0 C2 1.98 2 3.96 2 6 C1.34 6 0.68 6 0 6 C0 4.02 0 2.04 0 0 Z " fill="#000000" transform="translate(966,120)"/>
<path d="M0 0 C0.66 0 1.32 0 2 0 C2 1.98 2 3.96 2 6 C1.34 6 0.68 6 0 6 C0 4.02 0 2.04 0 0 Z " fill="#000000" transform="translate(961,120)"/>
<path d="M0 0 C0.66 0 1.32 0 2 0 C2 1.98 2 3.96 2 6 C1.34 6 0.68 6 0 6 C0 4.02 0 2.04 0 0 Z " fill="#000000" transform="translate(901,120)"/>
<path d="M0 0 C0.66 0 1.32 0 2 0 C2 1.98 2 3.96 2 6 C1.34 6 0.68 6 0 6 C0 4.02 0 2.04 0 0 Z " fill="#000000" transform="translate(898,120)"/>
<path d="M0 0 C0.66 0 1.32 0 2 0 C2 1.98 2 3.96 2 6 C1.34 6 0.68 6 0 6 C0 4.02 0 2.04 0 0 Z " fill="#000000" transform="translate(881,120)"/>
<path d="M0 0 C0.66 0 1.32 0 2 0 C2 1.98 2 3.96 2 6 C1.34 6 0.68 6 0 6 C0 4.02 0 2.04 0 0 Z " fill="#000000" transform="translate(869,120)"/>
<path d="M0 0 C0.66 0 1.32 0 2 0 C2 1.98 2 3.96 2 6 C1.34 6 0.68 6 0 6 C0 4.02 0 2.04 0 0 Z " fill="#000000" transform="translate(812,120)"/>
<path d="M0 0 C3.96 0 7.92 0 12 0 C12 0.33 12 0.66 12 1 C8.04 1 4.08 1 0 1 C0 0.67 0 0.34 0 0 Z " fill="#000000" transform="translate(1068,73)"/>
<path d="M0 0 C3.96 0 7.92 0 12 0 C12 0.33 12 0.66 12 1 C8.04 1 4.08 1 0 1 C0 0.67 0 0.34 0 0 Z " fill="#000000" transform="translate(1044,73)"/>
<path d="M0 0 C0.66 0 1.32 0 2 0 C2 1.98 2 3.96 2 6 C1.34 6 0.68 6 0 6 C0 4.02 0 2.04 0 0 Z " fill="#000000" transform="translate(987,61)"/>
<path d="M0 0 C0.66 0 1.32 0 2 0 C2 1.98 2 3.96 2 6 C1.34 6 0.68 6 0 6 C0 4.02 0 2.04 0 0 Z " fill="#000000" transform="translate(1119,55)"/>
<path d="M0 0 C0.66 0 1.32 0 2 0 C2 1.98 2 3.96 2 6 C1.34 6 0.68 6 0 6 C0 4.02 0 2.04 0 0 Z " fill="#000000" transform="translate(814,55)"/>
<path d="M0 0 C0.33 0.99 0.66 1.98 1 3 C0.01 3.33 -0.98 3.66 -2 4 C-1.34 2.68 -0.68 1.36 0 0 Z " fill="#000000" transform="translate(1085,216)"/>
<path d="M0 0 C0.99 0.99 1.98 1.98 3 3 C1.68 2.67 0.36 2.34 -1 2 C-0.67 1.34 -0.34 0.68 0 0 Z " fill="#000000" transform="translate(1025,271)"/>
<path d="M0 0 C0 0.99 0 1.98 0 3 C-0.99 2.67 -1.98 2.34 -3 2 C-2.01 1.34 -1.02 0.68 0 0 Z " fill="#000000" transform="translate(1061,239)"/>
<path d="M0 0 C0.66 0 1.32 0 2 0 C1.67 0.99 1.34 1.98 1 3 C0.34 3 -0.32 3 -1 3 C-0.67 2.01 -0.34 1.02 0 0 Z " fill="#000000" transform="translate(956,143)"/>
<path d="M0 0 C0.33 0 0.66 0 1 0 C1 2.31 1 4.62 1 7 C0.67 7 0.34 7 0 7 C0 4.69 0 2.38 0 0 Z " fill="#000000" transform="translate(1008,137)"/>
<path d="M0 0 C0.99 0 1.98 0 3 0 C2.67 0.99 2.34 1.98 2 3 C1.34 2.67 0.68 2.34 0 2 C0 1.34 0 0.68 0 0 Z " fill="#000000" transform="translate(947,137)"/>
<path d="M0 0 C2.31 0 4.62 0 7 0 C7 0.33 7 0.66 7 1 C4.69 1 2.38 1 0 1 C0 0.67 0 0.34 0 0 Z " fill="#000000" transform="translate(1109,73)"/>
<path d="M0 0 C2.31 0 4.62 0 7 0 C7 0.33 7 0.66 7 1 C4.69 1 2.38 1 0 1 C0 0.67 0 0.34 0 0 Z " fill="#000000" transform="translate(1097,73)"/>
<path d="M0 0 C2.31 0 4.62 0 7 0 C7 0.33 7 0.66 7 1 C4.69 1 2.38 1 0 1 C0 0.67 0 0.34 0 0 Z " fill="#000000" transform="translate(1020,73)"/>
<path d="M0 0 C0.66 0 1.32 0 2 0 C2 0.99 2 1.98 2 3 C1.34 3 0.68 3 0 3 C0 2.01 0 1.02 0 0 Z " fill="#000000" transform="translate(1018,283)"/>
<path d="M0 0 C0.99 0 1.98 0 3 0 C3 0.66 3 1.32 3 2 C2.01 2 1.02 2 0 2 C0 1.34 0 0.68 0 0 Z " fill="#000000" transform="translate(1048,254)"/>
<path d="M0 0 C0.66 0 1.32 0 2 0 C2 0.99 2 1.98 2 3 C1.34 3 0.68 3 0 3 C0 2.01 0 1.02 0 0 Z " fill="#000000" transform="translate(1090,210)"/>
<path d="M0 0 C0.99 0.33 1.98 0.66 3 1 C3 1.66 3 2.32 3 3 C2.34 3 1.68 3 1 3 C0.67 2.01 0.34 1.02 0 0 Z " fill="#000000" transform="translate(943,141)"/>
<path d="M0 0 C0.99 0.99 1.98 1.98 3 3 C2.01 3 1.02 3 0 3 C0 2.01 0 1.02 0 0 Z " fill="#000000" transform="translate(991,123)"/>
<path d="M0 0 C0.33 0 0.66 0 1 0 C1 1.98 1 3.96 1 6 C0.67 6 0.34 6 0 6 C0 4.02 0 2.04 0 0 Z " fill="#000000" transform="translate(1008,120)"/>
<path d="M0 0 C0.99 0 1.98 0 3 0 C2.67 0.99 2.34 1.98 2 3 C1.34 2.01 0.68 1.02 0 0 Z " fill="#000000" transform="translate(994,120)"/>
<path d="M0 0 C1.485 0.99 1.485 0.99 3 2 C2.01 2.33 1.02 2.66 0 3 C0 2.01 0 1.02 0 0 Z " fill="#000000" transform="translate(932,100)"/>
<path d="M0 0 C0.99 0 1.98 0 3 0 C2.67 0.99 2.34 1.98 2 3 C1.34 2.01 0.68 1.02 0 0 Z " fill="#000000" transform="translate(935,96)"/>
<path d="M0 0 C0.99 0.33 1.98 0.66 3 1 C2.01 1.66 1.02 2.32 0 3 C0 2.01 0 1.02 0 0 Z " fill="#000000" transform="translate(983,72)"/>
<path d="M0 0 C0.99 0.33 1.98 0.66 3 1 C2.01 1.33 1.02 1.66 0 2 C0 1.34 0 0.68 0 0 Z " fill="#000000" transform="translate(1070,231)"/>
<path d="M0 0 C0.33 0.99 0.66 1.98 1 3 C0.34 3 -0.32 3 -1 3 C-0.67 2.01 -0.34 1.02 0 0 Z " fill="#000000" transform="translate(1157,63)"/>
<path d="M0 0 C0.66 0 1.32 0 2 0 C2 0.66 2 1.32 2 2 C1.34 2 0.68 2 0 2 C0 1.34 0 0.68 0 0 Z " fill="#000000" transform="translate(1156,298)"/>
<path d="M0 0 C0.66 0 1.32 0 2 0 C2 0.66 2 1.32 2 2 C1.34 2 0.68 2 0 2 C0 1.34 0 0.68 0 0 Z " fill="#000000" transform="translate(1020,143)"/>
<path d="M0 0 C0.66 0 1.32 0 2 0 C2 0.66 2 1.32 2 2 C1.34 2 0.68 2 0 2 C0 1.34 0 0.68 0 0 Z " fill="#000000" transform="translate(979,72)"/>
<path d="M0 0 C0.66 0 1.32 0 2 0 C2 0.66 2 1.32 2 2 C1.34 2 0.68 2 0 2 C0 1.34 0 0.68 0 0 Z " fill="#000000" transform="translate(1156,67)"/>
<path d="M0 0 C0.66 0 1.32 0 2 0 C1.67 0.66 1.34 1.32 1 2 C0.67 1.34 0.34 0.68 0 0 Z " fill="#000000" transform="translate(1156,302)"/>
<path d="M0 0 C0.99 0.495 0.99 0.495 2 1 C1.01 1.495 1.01 1.495 0 2 C0 1.34 0 0.68 0 0 Z " fill="#000000" transform="translate(1063,237)"/>
<path d="M0 0 C0.33 0.66 0.66 1.32 1 2 C0.34 1.67 -0.32 1.34 -1 1 C-0.67 0.67 -0.34 0.34 0 0 Z " fill="#000000" transform="translate(1157,60)"/>
<path d="" fill="#000000" transform="translate(0,0)"/>
<path d="M0 0 C2 1 2 1 2 1 Z " fill="#000000" transform="translate(1043,261)"/>
<path d="M0 0 C2 1 2 1 2 1 Z " fill="#000000" transform="translate(1057,239)"/>
<path d="" fill="#000000" transform="translate(0,0)"/>
<path d="" fill="#000000" transform="translate(0,0)"/>
<path d="" fill="#000000" transform="translate(0,0)"/>
<path d="" fill="#000000" transform="translate(0,0)"/>
<path d="" fill="#000000" transform="translate(0,0)"/>
<path d="" fill="#000000" transform="translate(0,0)"/>
</svg>
