<svg width="117" height="32" viewBox="0 0 117 32" fill="none" xmlns="http://www.w3.org/2000/svg">
<g clip-path="url(#clip0_5901_7963)">
<path fill-rule="evenodd" clip-rule="evenodd" d="M3.81022 0H113.19C115.292 0 117 1.70554 117 3.80466V28.207C117 30.3061 115.292 32.0117 113.19 32.0117H3.81022C1.70803 32.0117 0 30.3061 0 28.207V3.80466C0 1.70554 1.70803 0 3.81022 0Z" fill="#F26522"/>
<path fill-rule="evenodd" clip-rule="evenodd" d="M20.2331 25.3854C18.0652 24.795 16.1601 24.139 14.1893 23.4175C13.9922 23.3519 13.8609 23.2863 13.6638 23.2863V20.9248C16.3572 20.9248 17.9338 18.432 17.9338 15.1522C17.9338 12.2003 16.4886 9.51076 13.6638 9.51076H13.5981V7.21484C13.6638 7.21484 13.6638 7.21484 13.7295 7.21484C18.1966 7.21484 20.8244 10.6259 20.8244 15.021C20.8244 18.76 19.1163 21.1871 16.8171 22.1711V22.2367C18.1309 22.6303 19.6419 22.9583 20.8901 23.1551L20.2331 25.3854ZM13.6638 23.2207C13.5324 23.1551 13.3353 23.1551 13.2039 23.1551C9.59078 22.9583 6.4375 20.3344 6.4375 15.2834C6.4375 10.5603 9.32801 7.21484 13.6638 7.21484V9.51076C10.9047 9.51076 9.3937 12.2003 9.3937 15.2834C9.3937 18.3664 10.9703 20.9248 13.6638 20.9248V23.2207Z" fill="white"/>
<path fill-rule="evenodd" clip-rule="evenodd" d="M33.307 19.6148C33.307 20.9267 33.3726 22.0419 33.3726 22.9602H30.942L30.8106 21.2547H30.7449C30.2851 22.0419 29.1683 23.157 27.1318 23.157C25.0953 23.157 23.2559 21.9107 23.2559 18.3028V11.8086H26.0807V17.8436C26.0807 19.6804 26.6719 20.8611 28.1829 20.8611C29.2997 20.8611 30.088 20.0739 30.3507 19.3524C30.4821 19.09 30.4821 18.8276 30.4821 18.4996V11.8086H33.307V19.6148Z" fill="white"/>
<path fill-rule="evenodd" clip-rule="evenodd" d="M37.7739 10.166C36.8542 10.166 36.1973 9.50995 36.1973 8.65718C36.1973 7.80442 36.8542 7.14844 37.7739 7.14844C38.7593 7.14844 39.3506 7.80442 39.3506 8.65718C39.3506 9.50995 38.7593 10.166 37.7739 10.166ZM36.3943 22.9575V11.8059H39.2192V22.9575H36.3943Z" fill="white"/>
<path fill-rule="evenodd" clip-rule="evenodd" d="M50.4519 22.5673C49.8606 22.8297 48.6782 23.1577 47.2986 23.1577C43.8168 23.1577 41.5176 20.9274 41.5176 17.4507C41.5176 14.1052 43.8168 11.5469 47.7584 11.5469C48.8095 11.5469 49.8606 11.7437 50.4519 12.0061L49.9263 14.1708C49.4665 13.9084 48.8095 13.7116 47.8241 13.7116C45.6563 13.7116 44.4081 15.286 44.4081 17.3195C44.4081 19.6154 45.919 20.9274 47.8241 20.9274C48.7438 20.9274 49.4665 20.7306 50.0577 20.4682L50.4519 22.5673Z" fill="white"/>
<path fill-rule="evenodd" clip-rule="evenodd" d="M55.3138 16.6614C55.6423 16.2022 55.9707 15.7431 56.2335 15.3495L58.9926 11.7416H62.343L58.2043 16.2678L62.9342 22.9588H59.5182L56.2992 18.039L55.3795 19.1541V22.9588H52.5547V6.625H55.3795V16.6614H55.3138Z" fill="white"/>
<path fill-rule="evenodd" clip-rule="evenodd" d="M71.8678 7.47656V13.6428H78.3714V7.47656H81.1963V22.9576H78.3714V16.1355H71.8678V22.9576H69.043V7.47656H71.8678Z" fill="white"/>
<path fill-rule="evenodd" clip-rule="evenodd" d="M88.751 20.9274C89.0795 20.993 89.408 20.993 89.7364 20.993C91.0503 20.993 91.97 20.7962 92.824 20.4682L93.2182 22.3705C92.2985 22.7641 90.9189 23.0921 89.3423 23.0921C89.1452 23.0921 88.9481 23.0921 88.751 23.0921V20.9274ZM88.751 11.5469C88.8167 11.5469 88.9481 11.5469 89.0795 11.5469C92.6927 11.5469 93.8751 14.4988 93.8751 16.9915C93.8751 17.5163 93.8094 17.9099 93.8094 18.1723H88.751V16.2043H91.2474C91.2474 15.1548 90.7875 13.5148 88.9481 13.5148C88.8824 13.5148 88.8824 13.5148 88.8167 13.5148V11.5469H88.751ZM86.3204 18.1723C86.3861 19.8122 87.4372 20.665 88.751 20.993V23.1577C85.5321 22.8953 83.627 20.7962 83.627 17.5163C83.627 14.4988 85.4007 11.6781 88.751 11.5469V13.4492C87.1087 13.5148 86.3861 15.0892 86.3204 16.1387H88.751V18.1067H86.3204V18.1723Z" fill="white"/>
<path fill-rule="evenodd" clip-rule="evenodd" d="M104.847 20.2714C104.847 21.2553 104.912 22.2393 105.044 22.9609H102.482L102.285 21.7145H102.219C101.759 22.3049 101.036 22.8297 100.182 23.0265V21.1241C101.168 20.993 101.825 20.337 102.087 19.6154C102.153 19.4186 102.153 19.2218 102.153 19.025V17.5163C101.496 17.5163 100.774 17.5819 100.182 17.7131V15.7451C100.774 15.6795 101.365 15.6795 102.087 15.6795V15.4827C102.087 14.8268 101.825 13.7116 100.182 13.5804V11.6125H100.314C103.861 11.6125 104.912 13.8428 104.912 16.3355V20.2714H104.847ZM100.117 23.0265C99.7225 23.0921 99.3283 23.1577 98.8685 23.1577C96.6349 23.1577 95.3867 21.5177 95.3867 19.8122C95.3867 17.4507 97.1604 16.0731 100.117 15.6795V17.5819C98.9999 17.8443 98.1458 18.369 98.1458 19.4842C98.1458 20.5994 98.8685 21.1241 99.7225 21.1241C99.8539 21.1241 99.9853 21.1241 100.051 21.1241V23.0265H100.117ZM100.117 13.5148C99.9853 13.5148 99.8539 13.5148 99.7225 13.5148C98.6057 13.5148 97.4889 13.8428 96.7006 14.3676L96.175 12.5309C96.9634 12.0717 98.4086 11.5469 100.117 11.5469V13.5148Z" fill="white"/>
<path d="M110.628 6.625H107.803V22.8932H110.628V6.625Z" fill="white"/>
</g>
<defs>
<clipPath id="clip0_5901_7963">
<rect width="117" height="32" fill="white"/>
</clipPath>
</defs>
</svg>
