<?xml version="1.0" encoding="UTF-8"?>
<!DOCTYPE svg PUBLIC "-//W3C//DTD SVG 1.1//EN" "http://www.w3.org/Graphics/SVG/1.1/DTD/svg11.dtd">
<!-- Creator: CorelDRAW 2019 (64-Bit) -->
<svg xmlns="http://www.w3.org/2000/svg" xml:space="preserve" width="2000px" height="526px" version="1.1" style="shape-rendering:geometricPrecision; text-rendering:geometricPrecision; image-rendering:optimizeQuality; fill-rule:evenodd; clip-rule:evenodd"
viewBox="0 0 2000 525.84"
 xmlns:xlink="http://www.w3.org/1999/xlink"
 xmlns:xodm="http://www.corel.com/coreldraw/odm/2003">
 <defs>
  <style type="text/css">
   <![CDATA[
    .fil3 {fill:#333333;fill-rule:nonzero}
    .fil1 {fill:url(#id0)}
    .fil0 {fill:url(#id1)}
    .fil2 {fill:url(#id2)}
   ]]>
  </style>
  <linearGradient id="id0" gradientUnits="userSpaceOnUse" x1="456.16" y1="93.37" x2="326.94" y2="49.42">
   <stop offset="0" style="stop-opacity:1; stop-color:#E18A01"/>
   <stop offset="1" style="stop-opacity:1; stop-color:#FECA01"/>
  </linearGradient>
  <linearGradient id="id1" gradientUnits="userSpaceOnUse" x1="391.87" y1="366.49" x2="547.61" y2="107.56">
   <stop offset="0" style="stop-opacity:1; stop-color:#CA2428"/>
   <stop offset="1" style="stop-opacity:1; stop-color:#F75B08"/>
  </linearGradient>
  <linearGradient id="id2" gradientUnits="userSpaceOnUse" x1="304.78" y1="497.64" x2="51.44" y2="110.79">
   <stop offset="0" style="stop-opacity:1; stop-color:#015EEA"/>
   <stop offset="0.658824" style="stop-opacity:1; stop-color:#0D89F2"/>
   <stop offset="1" style="stop-opacity:1; stop-color:#1AB4FA"/>
  </linearGradient>
 </defs>
 <g id="Layer_x0020_1">
  <metadata id="CorelCorpID_0Corel-Layer"/>
  <g id="_3017539669584">
   <polygon class="fil0" points="306.67,375.08 396.23,525.92 605.03,150.94 515.45,0.08 "/>
   <polygon class="fil1" points="431.49,150.94 515.45,0.08 515.45,0.08 337.05,0.08 253.04,150.94 "/>
   <polygon class="fil2" points="84.03,0.41 0,150.93 222.67,525.91 396.23,525.92 "/>
   <path class="fil3" d="M908.34 175.57l-85.39 227.4 -43.19 0 -85.73 -227.4 39.92 0 67.4 189.11 67.73 -189.11 39.26 0zm357.64 350.37c-5.42,0 -10.28,-0.87 -14.57,-2.62 -4.3,-1.75 -7.73,-4.34 -10.3,-7.76 -2.56,-3.43 -3.92,-7.56 -4.06,-12.39l19.21 0c0.29,2.73 1.24,4.81 2.86,6.25 1.61,1.43 3.73,2.15 6.33,2.15 2.67,0 4.79,-0.61 6.33,-1.84 1.55,-1.22 2.33,-2.92 2.33,-5.09 0,-1.82 -0.62,-3.32 -1.85,-4.51 -1.23,-1.19 -2.75,-2.17 -4.54,-2.94 -1.79,-0.77 -4.35,-1.64 -7.65,-2.62 -4.79,-1.47 -8.7,-2.94 -11.72,-4.41 -3.03,-1.47 -5.64,-3.64 -7.82,-6.5 -2.18,-2.87 -3.27,-6.61 -3.27,-11.23 0,-6.86 2.5,-12.22 7.5,-16.11 4.99,-3.88 11.5,-5.82 19.53,-5.82 8.16,0 14.74,1.94 19.74,5.82 5,3.89 7.68,9.29 8.03,16.21l-19.54 0c-0.14,-2.37 -1.02,-4.24 -2.64,-5.61 -1.61,-1.36 -3.69,-2.05 -6.22,-2.05 -2.19,0 -3.95,0.58 -5.28,1.74 -1.34,1.15 -2.01,2.81 -2.01,4.98 0,2.38 1.13,4.23 3.38,5.56 2.25,1.33 5.77,2.76 10.56,4.3 4.78,1.61 8.67,3.15 11.66,4.62 2.99,1.47 5.58,3.6 7.76,6.4 2.19,2.8 3.28,6.4 3.28,10.81 0,4.2 -1.08,8.01 -3.22,11.44 -2.15,3.42 -5.26,6.15 -9.35,8.18 -4.08,2.03 -8.9,3.04 -14.46,3.04zm129.64 -74.39l0 73.66 -18.06 0 0 -44.18 -16.57 44.18 -14.57 0 -16.69 -44.28 0 44.28 -18.05 0 0 -73.66 21.33 0 20.8 50.99 20.58 -50.99 21.23 0zm66.71 60.65l-27.67 0 -4.43 13.01 -18.9 0 26.82 -73.66 20.9 0 26.82 73.66 -19.11 0 -4.43 -13.01zm-4.65 -13.85l-9.19 -26.97 -9.07 26.97 18.26 0zm81.71 26.86l-15.42 -27.81 -4.33 0 0 27.81 -18.05 0 0 -73.66 30.3 0c5.84,0 10.82,1.01 14.94,3.04 4.12,2.03 7.2,4.81 9.24,8.34 2.04,3.54 3.06,7.47 3.06,11.81 0,4.89 -1.39,9.27 -4.17,13.11 -2.78,3.85 -6.88,6.58 -12.3,8.19l17.1 29.17 -20.37 0zm-19.75 -40.5l11.19 0c3.31,0 5.79,-0.81 7.45,-2.42 1.65,-1.61 2.48,-3.88 2.48,-6.82 0,-2.8 -0.83,-5 -2.48,-6.61 -1.66,-1.61 -4.14,-2.41 -7.45,-2.41l-11.19 0 0 18.26zm111.69 -33.16l0 14.37 -19.64 0 0 59.29 -18.05 0 0 -59.29 -19.64 0 0 -14.37 57.33 0zm58.37 36.72c0,-7.27 1.58,-13.76 4.75,-19.46 3.17,-5.7 7.58,-10.14 13.25,-13.33 5.67,-3.18 12.09,-4.77 19.27,-4.77 8.8,0 16.33,2.31 22.59,6.92 6.27,4.62 10.46,10.92 12.57,18.89l-19.85 0c-1.48,-3.08 -3.57,-5.42 -6.28,-7.03 -2.71,-1.61 -5.79,-2.41 -9.24,-2.41 -5.56,0 -10.07,1.92 -13.52,5.77 -3.45,3.85 -5.17,8.99 -5.17,15.42 0,6.44 1.72,11.58 5.17,15.43 3.45,3.85 7.96,5.77 13.52,5.77 3.45,0 6.53,-0.8 9.24,-2.41 2.71,-1.61 4.8,-3.96 6.28,-7.03l19.85 0c-2.11,7.97 -6.3,14.25 -12.57,18.83 -6.26,4.58 -13.79,6.87 -22.59,6.87 -7.18,0 -13.6,-1.59 -19.27,-4.77 -5.67,-3.18 -10.08,-7.61 -13.25,-13.27 -3.17,-5.67 -4.75,-12.14 -4.75,-19.42zm109.15 23.09l23.65 0 0 13.85 -41.7 0 0 -73.66 18.05 0 0 59.81zm123.83 -59.81l0 73.66 -18.05 0 0 -44.18 -16.58 44.18 -14.57 0 -16.68 -44.28 0 44.28 -18.05 0 0 -73.66 21.32 0 20.81 50.99 20.58 -50.99 21.22 0zm-879.54 -46.29c-21.15,0 -40.62,-4.97 -58.4,-14.89 -17.78,-9.93 -31.85,-23.78 -42.21,-41.55 -10.36,-17.78 -15.54,-37.79 -15.54,-60.04 0,-22.25 5.18,-42.21 15.54,-59.88 10.36,-17.67 24.43,-31.46 42.21,-41.39 17.78,-9.92 37.25,-14.88 58.4,-14.88 21.38,0 40.96,4.96 58.73,14.88 17.78,9.93 31.79,23.72 42.05,41.39 10.25,17.67 15.37,37.63 15.37,59.88 0,22.25 -5.12,42.26 -15.37,60.04 -10.26,17.77 -24.27,31.62 -42.05,41.55 -17.77,9.92 -37.35,14.89 -58.73,14.89zm0 -32.4c15.05,0 28.47,-3.43 40.25,-10.3 11.78,-6.87 20.99,-16.69 27.64,-29.45 6.66,-12.76 9.98,-27.54 9.98,-44.33 0,-16.8 -3.32,-31.52 -9.98,-44.17 -6.65,-12.66 -15.86,-22.36 -27.64,-29.12 -11.78,-6.77 -25.2,-10.15 -40.25,-10.15 -15.05,0 -28.46,3.38 -40.24,10.15 -11.78,6.76 -21,16.46 -27.65,29.12 -6.65,12.65 -9.98,27.37 -9.98,44.17 0,16.79 3.33,31.57 9.98,44.33 6.65,12.76 15.87,22.58 27.65,29.45 11.78,6.87 25.19,10.3 40.24,10.3zm190.1 0l76.89 0 0 30.11 -114.19 0 0 -227.4 37.3 0 0 197.29zm211.69 32.4c-21.16,0 -40.63,-4.97 -58.4,-14.89 -17.78,-9.93 -31.85,-23.78 -42.21,-41.55 -10.36,-17.78 -15.54,-37.79 -15.54,-60.04 0,-22.25 5.18,-42.21 15.54,-59.88 10.36,-17.67 24.43,-31.46 42.21,-41.39 17.77,-9.92 37.24,-14.88 58.4,-14.88 21.38,0 40.95,4.96 58.73,14.88 17.78,9.93 31.79,23.72 42.04,41.39 10.25,17.67 15.38,37.63 15.38,59.88 0,22.25 -5.13,42.26 -15.38,60.04 -10.25,17.77 -24.26,31.62 -42.04,41.55 -17.78,9.92 -37.35,14.89 -58.73,14.89zm0 -32.4c15.05,0 28.46,-3.43 40.24,-10.3 11.78,-6.87 21,-16.69 27.65,-29.45 6.65,-12.76 9.98,-27.54 9.98,-44.33 0,-16.8 -3.33,-31.52 -9.98,-44.17 -6.65,-12.66 -15.87,-22.36 -27.65,-29.12 -11.78,-6.77 -25.19,-10.15 -40.24,-10.15 -15.05,0 -28.47,3.38 -40.25,10.15 -11.77,6.76 -20.99,16.46 -27.64,29.12 -6.66,12.65 -9.98,27.37 -9.98,44.17 0,16.79 3.32,31.57 9.98,44.33 6.65,12.76 15.87,22.58 27.64,29.45 11.78,6.87 25.2,10.3 40.25,10.3zm227.07 -197.29c24.21,0 45.42,4.63 63.64,13.9 18.21,9.28 32.28,22.58 42.2,39.92 9.93,17.34 14.89,37.57 14.89,60.69 0,23.13 -4.96,43.19 -14.89,60.21 -9.92,17.01 -23.99,30.05 -42.2,39.1 -18.22,9.05 -39.43,13.58 -63.64,13.58l-74.27 0 0 -227.4 74.27 0zm0 196.97c26.61,0 47,-7.2 61.18,-21.6 14.18,-14.39 21.27,-34.68 21.27,-60.86 0,-26.39 -7.09,-47 -21.27,-61.83 -14.18,-14.84 -34.57,-22.25 -61.18,-22.25l-36.97 0 0 166.54 36.97 0zm326.2 -196.97l-75.25 144.94 0 82.46 -37.3 0 0 -82.46 -75.58 -144.94 41.55 0 52.68 111.57 52.68 -111.57 41.22 0z"/>
  </g>
 </g>
</svg>
